{"glyphs":{"0":{"ha":594,"x_min":6,"x_max":542,"o":"m 542 469 q 435 130 542 268 q 186 -8 328 -8 q 58 46 111 -8 q 6 175 6 100 q 103 497 6 347 q 369 664 211 664 q 494 607 447 664 q 542 469 542 550 m 472 328 q 429 514 472 438 q 289 603 379 603 q 140 507 193 603 q 94 308 94 425 q 139 147 94 207 q 281 81 189 81 q 431 158 381 81 q 472 328 472 224 z "},"1":{"ha":444,"x_min":0,"x_max":396,"o":"m 394 668 l 322 46 l 207 0 l 194 0 l 244 478 q 231 497 247 497 q 213 489 221 497 q 124 399 153 428 q 32 310 35 308 q 11 300 22 300 q 0 310 0 300 q 7 322 0 315 l 375 681 q 388 683 381 686 q 394 668 396 681 z "},"2":{"ha":642,"x_min":8,"x_max":589,"o":"m 589 131 q 518 39 558 65 q 342 -6 450 -6 q 153 15 269 -6 q 8 36 36 36 l 25 57 l 168 178 q 278 296 236 236 q 325 417 325 364 q 294 498 325 463 q 219 533 264 533 q 97 456 157 533 q 78 447 88 451 q 142 536 78 490 q 313 654 226 594 l 326 654 q 423 563 385 607 q 461 467 461 519 q 344 299 461 404 q 174 150 258 224 l 182 132 q 251 113 225 118 q 381 92 335 92 q 517 102 451 92 q 589 131 583 113 z "},"3":{"ha":535,"x_min":-119,"x_max":482,"o":"m 482 615 q 310 474 453 600 q 243 414 285 453 l 342 411 q 440 369 408 411 q 464 292 464 338 q 301 24 464 150 q -28 -103 138 -103 q -112 -56 -92 -103 q -119 -7 -118 -40 q -72 -26 -114 -6 q 53 -53 -21 -53 q 251 22 160 -53 q 342 178 342 96 q 222 322 342 322 q 110 289 165 322 q 8 214 58 251 q 1 226 1 214 q 19 255 1 236 q 57 289 38 274 l 206 403 q 264 460 242 431 q 286 517 286 490 q 271 547 286 535 q 208 564 250 564 q 169 553 188 564 q 139 528 151 543 l 126 540 l 243 683 q 351 636 271 650 q 464 628 401 628 q 479 628 476 628 q 482 628 481 628 l 482 615 z "},"4":{"ha":686,"x_min":13,"x_max":639,"o":"m 639 289 l 603 206 l 450 206 l 439 50 l 313 0 l 328 206 l 17 206 l 13 226 l 471 701 l 489 690 l 457 275 l 583 275 q 625 282 607 275 q 639 289 631 283 m 353 544 l 86 275 l 332 275 l 353 544 z "},"5":{"ha":551,"x_min":-33,"x_max":500,"o":"m 500 636 l 465 532 l 203 619 q 158 593 182 626 q 144 556 144 574 q 208 421 144 532 q 272 214 272 310 q 197 86 272 167 q 56 -43 144 29 q -21 -103 -18 -103 l -33 -87 q 101 40 46 -32 q 156 189 156 113 q 111 329 156 246 q 13 500 61 414 l 264 711 l 500 636 z "},"6":{"ha":594,"x_min":22,"x_max":561,"o":"m 561 651 q 335 526 472 638 q 185 358 197 415 q 246 382 222 375 q 367 406 317 406 q 467 378 429 406 q 514 272 514 343 q 430 85 514 174 q 264 -3 346 -3 q 88 43 143 -3 q 22 231 22 97 q 179 529 22 396 q 500 657 331 657 q 561 651 535 657 m 383 261 q 354 338 383 306 q 289 369 325 369 q 157 296 217 369 q 97 133 97 222 q 124 63 97 83 q 200 42 151 42 q 331 131 271 42 q 383 261 383 208 z "},"7":{"ha":597,"x_min":-99,"x_max":546,"o":"m 546 683 l 286 53 q 138 -104 264 -3 q -99 -231 -3 -218 l -96 -207 q 92 -71 -1 -187 q 217 138 157 11 q 263 244 239 190 l 385 558 l 382 583 l 213 594 l 63 594 l 33 582 l 14 594 l 78 703 q 207 683 100 692 q 307 678 242 682 l 503 678 l 546 683 z "},"8":{"ha":507,"x_min":8,"x_max":456,"o":"m 447 542 q 378 425 456 488 q 297 372 353 404 q 368 342 344 354 q 439 247 439 300 q 415 171 439 208 q 351 106 392 133 l 206 7 q 192 0 197 1 q 150 -8 171 -8 q 39 31 75 -8 q 8 111 8 63 q 78 243 8 189 q 168 307 122 275 q 118 344 135 329 q 67 431 67 392 q 94 503 67 467 q 164 565 121 540 l 307 651 l 319 651 l 419 608 q 442 578 439 600 q 447 542 446 556 m 358 478 q 324 546 358 514 q 253 578 289 578 q 201 555 224 578 q 178 500 178 532 q 231 407 178 443 q 283 382 247 396 q 321 403 308 393 q 358 478 358 433 m 322 164 q 256 257 322 210 q 188 296 233 272 q 143 256 157 272 q 97 142 97 201 q 133 71 97 96 q 200 50 164 50 q 288 83 254 50 q 322 164 322 115 z "},"9":{"ha":535,"x_min":-28,"x_max":486,"o":"m 486 447 q 311 39 486 217 q -6 -121 154 -121 q -28 -119 -21 -121 q 250 110 160 -6 q 340 347 340 226 q 276 292 301 310 q 147 236 201 236 q 31 308 69 236 q 3 419 3 360 q 83 616 3 526 q 269 706 164 706 q 415 650 358 706 q 486 447 486 582 m 369 511 q 342 628 369 581 q 250 683 310 683 q 152 627 188 683 q 117 494 117 571 q 144 372 117 419 q 244 314 179 314 q 342 378 308 314 q 369 511 369 431 z "}," ":{"ha":576,"x_min":0,"x_max":0,"o":""},"!":{"ha":235,"x_min":-4,"x_max":181,"o":"m 181 876 l 115 249 q 90 188 111 207 q 51 174 75 174 q 31 175 36 174 q 28 178 29 175 l 36 264 l 83 829 l 68 871 l 178 913 l 181 876 m 125 85 q 118 64 125 71 l 50 0 q 38 -4 44 -7 q 10 8 24 -4 q -4 35 -4 19 q 2 56 -4 46 q 19 76 8 65 l 63 119 q 81 126 69 126 q 115 116 104 126 q 125 85 125 106 z "},"\"":{"ha":332,"x_min":57,"x_max":311,"o":"m 311 679 q 304 597 311 638 q 265 526 292 526 q 230 577 244 526 q 215 686 215 628 l 215 731 q 231 758 215 747 q 264 769 246 769 q 297 760 283 769 q 311 735 311 751 l 311 679 m 153 676 q 146 594 153 635 q 107 524 133 524 q 72 574 86 524 q 57 683 57 625 l 57 728 q 72 756 57 744 q 106 767 88 767 q 139 758 125 767 q 153 732 153 749 l 153 676 z "},"#":{"ha":899,"x_min":1,"x_max":842,"o":"m 842 553 l 817 478 l 622 478 l 565 292 l 758 292 l 733 219 l 539 219 l 451 -28 l 365 -28 l 450 221 l 289 221 l 201 -28 l 108 -28 l 193 221 l 1 221 l 28 292 l 221 292 l 286 478 l 89 478 l 118 553 l 307 553 l 394 803 l 482 803 l 396 553 l 558 553 l 642 803 l 728 803 l 651 553 l 842 553 m 533 478 l 372 478 l 310 292 l 478 292 l 533 478 z "},"$":{"ha":579,"x_min":8,"x_max":514,"o":"m 514 549 q 502 493 514 508 q 463 478 490 478 q 435 488 443 478 q 426 517 426 499 q 432 553 426 519 q 438 608 438 586 q 417 690 438 665 q 394 704 410 699 l 358 401 q 432 371 408 385 q 507 260 507 326 q 435 58 507 136 q 303 -8 374 -8 l 292 -89 l 256 -89 l 264 -12 l 206 -12 l 193 -87 l 157 -87 l 168 0 q 89 39 115 19 q 8 204 8 100 q 29 289 8 264 q 75 308 46 308 q 107 297 94 308 q 119 263 119 286 q 104 221 119 247 q 69 115 69 160 q 121 44 69 82 q 174 14 138 32 l 219 340 q 175 356 192 347 q 76 515 76 404 q 172 701 76 632 q 268 747 204 724 l 275 796 l 307 797 l 303 747 l 360 742 l 365 790 l 403 790 l 396 739 q 469 679 432 731 q 514 549 514 618 m 358 717 l 297 722 l 263 435 l 319 414 l 358 717 m 264 722 q 201 693 222 707 q 138 578 138 649 q 182 472 138 511 q 226 447 196 460 l 264 722 m 435 176 q 388 264 435 226 q 340 292 372 276 l 307 13 q 392 54 354 13 q 435 176 435 101 m 303 307 l 249 328 l 207 8 l 269 8 l 303 307 z "},"%":{"ha":883,"x_min":1,"x_max":832,"o":"m 832 313 q 817 249 832 281 q 801 224 813 239 l 690 111 q 664 90 675 97 q 574 69 626 69 q 493 94 524 69 q 457 188 457 124 q 500 281 457 240 l 596 372 q 636 396 621 389 q 717 419 683 419 q 810 390 783 419 q 832 313 832 365 m 733 796 l 161 -28 l 25 -28 l 603 714 q 506 665 569 685 q 388 644 442 644 q 364 646 371 644 q 371 613 364 644 q 374 585 374 600 q 364 540 374 563 q 328 489 354 517 l 251 408 q 210 381 226 389 q 115 351 157 351 q 36 375 65 351 q 1 454 1 403 q 19 532 1 500 q 46 565 28 547 l 125 639 q 168 667 151 658 q 271 696 224 696 q 317 689 292 696 q 396 672 378 672 q 551 710 478 672 q 671 796 607 738 l 733 796 m 753 224 q 764 274 764 235 q 747 331 764 310 q 678 360 725 360 q 647 355 663 357 q 625 349 631 353 l 539 275 q 529 253 532 268 q 526 221 526 239 q 550 153 526 174 q 618 132 574 132 q 663 140 644 132 q 671 146 665 142 l 753 224 m 303 553 q 288 610 303 590 q 211 639 265 639 q 179 637 192 639 q 158 628 167 635 l 76 551 q 74 542 74 546 q 67 494 67 515 q 81 440 67 460 q 144 414 100 414 q 236 440 190 414 q 303 553 303 479 z "},"&":{"ha":1126,"x_min":-50,"x_max":1072,"o":"m 1072 372 l 1040 296 l 829 296 l 790 0 l 714 0 q 642 -87 678 -43 q 450 -250 551 -186 q 183 -339 311 -339 q 15 -280 81 -339 q -50 -147 -50 -221 q 46 50 -50 -56 q 225 214 83 90 q 322 333 322 299 q 243 440 322 363 q 164 565 164 518 q 257 711 164 625 q 440 801 356 801 q 507 751 507 801 q 492 713 507 725 q 457 701 478 701 q 419 722 439 701 q 356 742 399 742 q 288 715 321 742 q 256 664 256 688 q 345 540 256 615 q 435 414 435 464 q 340 286 435 372 q 165 119 196 154 q 69 -81 69 11 q 150 -212 69 -165 q 311 -253 219 -253 q 546 -140 421 -253 q 707 131 682 -18 l 735 296 l 622 296 l 858 517 l 844 385 l 1061 385 l 1072 372 z "},"'":{"ha":211,"x_min":57,"x_max":153,"o":"m 153 676 q 146 594 153 635 q 107 524 133 524 q 72 574 86 524 q 57 683 57 625 l 57 728 q 72 756 57 744 q 106 767 88 767 q 139 758 125 767 q 153 732 153 749 l 153 676 z "},"(":{"ha":414,"x_min":-3,"x_max":353,"o":"m 353 -115 l 340 -131 q 126 65 229 -85 q -3 472 -3 253 q 65 771 -3 629 q 211 978 121 886 q 340 1074 282 1050 l 351 1061 q 200 867 251 990 q 139 481 139 718 q 190 85 139 215 q 353 -115 235 -28 z "},")":{"ha":414,"x_min":17,"x_max":372,"o":"m 372 478 q 244 72 372 258 q 29 -125 140 -79 l 17 -110 q 179 89 135 -22 q 231 486 231 218 q 171 871 231 725 q 18 1067 119 994 l 29 1079 q 157 983 85 1057 q 303 776 247 892 q 372 478 372 632 z "},"*":{"ha":351,"x_min":1,"x_max":292,"o":"m 292 782 l 268 728 l 168 797 l 178 671 l 126 671 l 138 797 l 40 728 l 13 774 l 125 826 l 1 871 l 32 913 l 138 846 l 125 968 l 181 968 l 168 846 l 264 913 l 289 871 l 178 826 l 292 782 z "},"+":{"ha":444,"x_min":21,"x_max":381,"o":"m 381 244 l 244 244 l 244 88 l 172 88 l 172 244 l 21 244 l 21 322 l 172 322 l 172 478 l 244 478 l 244 322 l 381 322 l 381 244 z "},",":{"ha":203,"x_min":-31,"x_max":150,"o":"m 150 24 q 97 -31 150 14 q 33 -75 44 -75 q -25 -43 -17 -75 q -10 -15 -31 -26 q 32 8 11 -3 l 103 71 q 126 71 108 76 q 150 24 150 64 z "},"-":{"ha":382,"x_min":1,"x_max":332,"o":"m 332 256 l 1 256 l 1 328 l 332 328 l 332 256 z "},".":{"ha":203,"x_min":10,"x_max":139,"o":"m 139 89 q 132 64 139 71 l 64 0 q 53 -4 58 -6 q 24 7 38 -4 q 10 35 10 18 q 16 56 10 46 q 33 76 22 65 l 76 119 q 94 126 83 126 q 126 117 114 126 q 139 89 139 107 z "},"/":{"ha":960,"x_min":-28,"x_max":908,"o":"m 908 1024 l 108 -53 l -28 -53 l 779 1024 l 908 1024 z "},":":{"ha":203,"x_min":7,"x_max":139,"o":"m 139 306 q 132 286 139 293 l 64 222 q 53 218 58 217 q 24 229 38 218 q 10 257 10 240 q 16 278 10 268 q 33 299 22 288 l 76 342 q 94 349 83 349 q 139 306 139 349 m 136 86 q 129 67 136 74 l 61 3 q 50 -1 56 -3 q 21 10 35 -1 q 7 38 7 21 q 13 58 7 49 q 31 79 19 68 l 74 122 q 92 129 81 129 q 136 86 136 129 z "},";":{"ha":188,"x_min":-40,"x_max":139,"o":"m 139 306 q 132 286 139 293 l 64 222 q 53 218 58 217 q 24 228 38 218 q 10 256 10 239 q 15 278 10 269 q 33 299 19 285 l 76 342 q 96 349 83 349 q 139 306 139 349 m 136 43 q 125 1 136 8 l 103 -12 q 60 -51 81 -32 q 4 -67 35 -67 q -37 -40 -29 -67 q -40 -14 -40 -32 q 7 3 -15 -8 q 25 14 14 6 l 89 76 q 108 79 100 79 q 130 70 124 79 q 136 43 136 61 z "},"<":{"ha":414,"x_min":13,"x_max":351,"o":"m 351 224 l 13 390 l 351 544 l 351 471 l 161 390 l 351 297 l 351 224 z "},"=":{"ha":382,"x_min":1,"x_max":332,"o":"m 332 339 l 1 339 l 1 414 l 332 414 l 332 339 m 332 193 l 1 193 l 1 268 l 332 268 l 332 193 z "},">":{"ha":399,"x_min":1,"x_max":339,"o":"m 339 390 l 1 226 l 1 297 l 189 390 l 1 471 l 1 546 l 339 390 z "},"?":{"ha":504,"x_min":1,"x_max":442,"o":"m 442 783 q 340 594 442 661 q 189 513 264 553 l 158 231 l 151 219 l 99 174 l 82 178 l 108 450 q 256 597 110 468 q 321 722 321 656 q 265 856 321 807 q 157 897 218 897 q 81 885 122 897 q 14 858 40 874 l 1 860 q 56 913 33 896 q 204 967 128 967 q 365 913 288 967 q 442 783 442 860 m 181 85 q 174 64 181 71 l 106 0 q 93 -4 100 -7 q 65 8 79 -4 q 51 35 51 19 q 58 56 51 46 q 75 76 64 65 l 118 119 q 138 126 125 126 q 181 85 181 126 z "},"@":{"ha":749,"x_min":8,"x_max":694,"o":"m 694 586 q 683 497 689 542 q 617 329 663 393 q 450 239 553 239 q 417 256 426 239 q 408 300 408 272 q 415 357 408 328 q 419 369 415 361 l 414 365 q 379 304 394 324 q 278 242 332 242 q 225 283 244 242 q 206 372 206 324 q 263 551 206 481 q 394 622 319 622 q 440 597 414 622 q 463 572 449 589 l 478 614 l 514 583 l 457 351 q 456 338 456 347 q 462 313 456 322 q 483 303 468 303 q 576 383 546 303 q 597 492 597 438 q 531 704 597 622 q 356 786 464 786 q 185 670 251 786 q 119 403 119 554 q 175 192 119 271 q 361 100 239 100 q 490 143 433 100 q 533 188 508 157 l 553 174 q 460 81 497 111 q 239 -14 344 -14 q 83 63 158 -14 q 8 214 8 139 q 138 665 8 471 q 469 869 274 869 q 643 781 583 869 q 694 586 694 703 m 442 514 q 442 536 442 525 q 443 553 442 544 q 436 578 443 572 q 397 583 428 583 q 315 538 349 583 q 281 417 281 493 q 291 356 281 382 q 325 331 301 331 q 406 404 365 331 q 442 514 442 471 z "},"A":{"ha":1439,"x_min":-26,"x_max":1390,"o":"m 1390 272 l 1274 274 l 1279 24 l 1107 -53 l 1140 33 l 1139 278 l 801 285 l 596 -6 q 385 -219 494 -147 q 119 -300 261 -300 q 15 -262 53 -300 q -26 -135 -26 -219 q 42 78 -26 -6 q 171 169 90 138 q 240 189 219 189 q 242 181 242 183 q 242 163 244 168 q 160 50 192 114 q 119 -83 119 -29 q 148 -181 119 -143 q 229 -225 176 -219 q 436 -136 317 -232 q 600 40 535 -57 l 765 285 l 453 292 l 567 338 l 794 338 l 1164 915 q 1186 950 1175 932 q 1213 968 1200 968 q 1238 957 1238 968 l 1268 338 l 1390 338 l 1390 272 m 1133 338 q 1133 353 1133 343 q 1133 375 1133 364 q 1133 404 1133 393 q 1131 572 1133 511 q 1118 703 1129 632 q 1094 714 1114 719 q 1073 699 1081 710 q 1060 679 1065 688 l 832 338 l 1133 338 z "},"B":{"ha":903,"x_min":-222,"x_max":844,"o":"m 844 264 q 807 101 844 186 q 750 4 781 40 l 843 4 l 839 -12 l 732 -12 q 653 -103 707 -49 q 529 -212 589 -167 q 275 -375 383 -324 q 11 -437 142 -437 q -178 -402 -135 -437 q -222 -292 -222 -367 q -91 -89 -222 -182 q 169 4 40 4 l 688 4 q 704 46 699 31 q 722 132 722 97 q 718 164 722 149 q 653 248 699 224 q 522 272 607 272 l 414 272 q 335 263 382 272 q 292 251 319 260 l 292 264 q 375 357 294 264 q 531 549 469 465 q 615 701 615 664 q 598 769 615 746 q 542 793 581 793 q 440 739 482 793 q 379 621 413 704 q 322 488 378 621 q 214 223 274 371 q 151 54 154 75 l 54 0 l 147 689 q 143 725 147 715 q 131 729 139 735 l 33 657 l 13 674 l 319 915 l 338 899 l 285 844 l 289 782 l 207 269 q 271 424 239 346 q 401 719 335 576 q 501 903 478 885 q 572 915 514 915 q 638 908 611 915 q 710 881 682 908 q 738 807 738 853 q 708 682 738 739 q 610 549 678 625 q 453 382 606 543 l 613 382 q 801 353 757 382 q 844 264 844 324 m 678 -12 l 219 -12 q 11 -76 108 -12 q -101 -258 -101 -150 q -42 -349 -101 -315 q 100 -382 18 -382 q 326 -332 225 -382 q 522 -193 407 -293 q 626 -81 568 -154 q 678 -12 646 -56 z "},"C":{"ha":815,"x_min":11,"x_max":753,"o":"m 753 863 l 639 756 l 669 753 q 694 756 685 753 q 714 763 704 758 q 693 735 704 746 q 665 715 678 718 q 607 693 653 713 q 547 679 574 679 q 453 704 483 679 q 414 785 422 729 q 342 717 404 785 q 208 518 261 629 q 135 200 135 364 q 212 8 135 75 q 421 -60 289 -60 q 518 -37 474 -60 q 578 -1 563 -10 l 597 -1 q 489 -85 501 -76 q 274 -135 413 -135 q 71 -51 144 -135 q 11 101 11 17 q 115 476 11 290 q 308 728 190 610 q 414 819 400 819 q 461 891 428 867 q 518 915 494 915 l 558 915 l 675 963 q 710 969 694 971 q 741 963 729 969 q 753 942 753 957 l 753 863 m 675 867 q 652 905 675 890 q 603 915 629 919 q 556 887 575 911 q 538 826 538 863 q 560 781 538 801 q 610 761 583 761 q 656 808 638 779 q 675 867 675 836 z "},"D":{"ha":1639,"x_min":15,"x_max":1599,"o":"m 1599 449 q 1446 136 1599 290 q 1192 -8 1303 -8 q 1030 2 1089 -8 q 872 47 971 13 l 633 129 q 444 -89 539 19 q 201 -178 332 -178 q 63 -135 111 -178 q 15 -7 15 -93 q 78 139 15 56 q 197 247 142 222 l 246 264 q 310 317 260 271 q 357 361 325 332 l 671 249 l 1058 808 q 917 854 1038 825 q 701 888 781 888 q 518 849 608 888 q 392 697 392 794 q 458 542 392 607 q 546 490 514 486 l 561 472 l 468 408 l 453 408 q 384 503 414 425 q 354 653 354 581 q 486 886 354 796 q 767 968 606 968 q 808 968 792 968 q 835 968 825 968 q 961 957 911 968 q 1118 896 1011 946 l 1165 957 l 1183 957 l 1288 838 q 1504 671 1418 768 q 1599 449 1599 565 m 1511 349 q 1406 606 1511 490 q 1210 747 1331 686 q 1103 792 1121 792 l 708 233 l 1008 129 q 1124 92 1094 100 q 1229 76 1181 76 q 1431 153 1351 76 q 1511 349 1511 231 m 599 142 l 357 225 q 334 230 346 229 q 315 232 322 231 q 293 231 310 232 q 265 229 276 229 q 142 182 193 229 q 78 7 78 122 q 126 -86 78 -46 q 221 -122 171 -122 q 421 -60 339 -122 q 599 142 486 -11 z "},"E":{"ha":742,"x_min":-8,"x_max":688,"o":"m 686 922 q 683 903 688 915 q 679 892 683 899 l 610 819 l 599 819 q 558 879 585 860 q 417 913 513 913 q 331 903 378 913 q 240 872 283 894 q 154 735 154 828 q 171 696 154 714 q 200 674 179 686 l 404 532 q 439 506 436 508 q 454 464 454 489 q 435 421 454 447 q 353 331 432 417 l 189 147 q 138 72 156 110 q 121 0 121 35 q 168 -86 121 -43 q 313 -137 225 -137 q 387 -126 357 -137 q 453 -82 417 -115 l 476 -60 q 488 -60 485 -60 q 500 -71 500 -61 l 292 -236 l 225 -240 q 65 -186 139 -240 q -8 -72 -8 -132 q 76 78 -8 -12 q 164 169 119 124 l 292 314 q 314 345 306 329 q 322 378 322 361 q 319 397 322 383 q 313 414 317 411 l 85 578 q 53 617 68 589 q 38 674 38 646 q 97 799 38 736 q 240 899 150 854 q 418 953 326 938 q 603 968 510 968 q 654 953 622 968 q 686 922 686 939 z "},"F":{"ha":844,"x_min":8,"x_max":794,"o":"m 794 910 l 750 776 l 508 794 l 443 382 l 714 382 l 703 279 l 424 279 q 378 100 400 189 q 131 -42 311 -42 q 54 -19 88 -42 q 8 72 8 11 q 31 178 8 135 q 54 210 38 192 l 200 258 q 164 215 175 233 q 128 106 128 161 q 146 36 128 60 q 233 3 171 3 q 343 140 301 3 q 371 279 356 186 l 308 279 l 383 382 l 447 794 l 319 794 q 197 782 232 794 q 138 692 138 760 l 138 558 l 117 558 l 117 721 q 163 851 117 792 q 278 910 208 910 q 447 902 353 906 q 638 899 542 899 q 727 900 676 899 q 794 910 778 901 z "},"G":{"ha":844,"x_min":-131,"x_max":786,"o":"m 786 297 q 672 -4 786 196 q 394 -378 554 -212 q 277 -499 338 -437 q 160 -587 217 -560 q 0 -622 89 -622 q -99 -576 -68 -622 q -131 -453 -131 -529 q -47 -232 -131 -349 q 108 -67 11 -150 q 193 -1 185 -1 q 103 38 132 15 q 11 258 11 108 q 106 553 11 408 q 283 749 174 656 q 379 819 368 819 q 383 865 379 842 q 403 899 386 888 l 507 903 q 594 951 517 904 q 649 972 629 972 q 699 951 671 972 q 726 911 726 931 q 653 803 726 871 q 579 742 629 781 q 603 736 589 739 q 636 733 617 733 q 678 742 661 733 l 678 735 q 635 711 654 718 q 504 688 576 688 q 394 740 422 688 q 382 794 386 757 q 315 743 371 794 q 190 581 239 672 q 122 297 122 450 q 192 133 122 203 q 358 64 261 64 q 533 122 419 64 q 638 182 571 142 l 610 285 l 732 331 l 760 332 q 772 321 768 325 q 786 297 786 307 m 638 850 q 617 891 638 872 q 576 910 597 910 q 538 901 558 910 q 518 883 518 892 l 518 789 q 529 772 522 779 q 567 749 543 760 q 601 781 590 768 q 638 850 638 819 m 638 154 q 519 76 564 101 q 297 -3 382 -3 l 219 -1 q 163 -61 214 -1 q 56 -222 97 -137 q -3 -450 -3 -340 q 17 -537 -3 -499 q 92 -589 43 -589 q 317 -418 174 -589 q 543 -83 439 -271 q 638 154 647 106 z "},"H":{"ha":954,"x_min":7,"x_max":903,"o":"m 903 389 l 818 307 l 779 40 l 664 0 l 701 308 l 171 308 l 124 33 l 8 0 l 54 308 l 11 308 l 7 319 l 82 435 l 122 708 q 125 736 125 728 q 107 797 125 775 q 89 813 101 804 l 207 910 q 246 890 236 901 q 256 851 256 879 q 251 807 256 835 l 183 382 l 708 382 l 779 885 l 899 910 l 825 382 l 885 401 l 903 389 z "},"I":{"ha":918,"x_min":-6,"x_max":863,"o":"m 863 913 l 643 188 l 701 142 l 615 97 l 578 0 q 521 -49 549 -24 q 368 -139 449 -103 q 154 -187 258 -187 q 46 -124 94 -187 q -4 -4 3 -68 q -6 15 -6 1 q 29 144 -6 68 q 64 210 40 169 l 201 251 q 165 181 176 207 q 129 46 129 99 q 158 -78 129 -35 q 283 -133 197 -133 q 428 -77 360 -133 q 525 67 497 -21 l 568 200 q 432 293 476 257 q 296 479 296 401 q 344 599 296 546 q 479 696 385 642 l 863 913 m 729 718 l 574 631 q 449 536 493 585 q 396 413 396 478 q 486 283 396 356 q 578 222 515 260 l 729 718 z "},"J":{"ha":742,"x_min":-237,"x_max":683,"o":"m 683 910 l 461 47 l 533 0 l 442 -33 l 421 -93 q 222 -375 356 -279 q -121 -471 88 -471 q -201 -423 -165 -471 q -237 -325 -237 -375 q -200 -196 -237 -254 q -161 -151 -187 -176 l -47 -124 q -75 -181 -67 -158 q -104 -308 -104 -253 q -50 -387 -104 -353 q 38 -417 -4 -417 q 229 -312 151 -417 q 332 -83 289 -233 l 371 50 l 210 147 q 68 251 115 206 q 4 375 4 315 q 51 503 4 450 q 167 590 83 539 q 293 660 169 590 q 533 801 407 724 q 683 910 669 885 m 553 707 l 233 507 q 150 442 174 469 q 117 346 117 401 q 138 243 117 286 q 210 171 160 200 l 379 72 l 553 707 z "},"K":{"ha":1144,"x_min":0,"x_max":1089,"o":"m 1083 142 q 1018 53 1046 82 q 825 -36 932 -36 q 708 26 754 -36 l 540 258 q 532 286 532 269 q 547 326 532 306 l 860 760 l 874 813 l 950 957 q 967 967 954 964 q 990 968 979 971 l 1079 939 q 1089 925 1089 935 q 1079 903 1089 915 l 974 761 q 969 753 971 758 q 968 746 968 749 q 979 725 968 735 q 990 718 982 722 q 971 699 979 704 q 914 678 943 678 q 875 699 897 678 q 867 708 872 701 l 607 379 l 863 72 q 933 33 894 33 q 1025 88 974 33 q 1068 142 1042 106 l 1083 142 m 663 939 q 675 926 675 931 q 646 872 663 908 q 615 782 629 836 l 501 326 q 446 128 460 160 q 364 8 415 56 l 131 -210 q 102 -230 115 -224 q 67 -236 89 -236 q 13 -210 26 -236 q 0 -142 0 -183 l 0 -7 l 69 33 q 90 38 78 38 q 113 32 104 38 q 122 13 122 26 l 122 -89 q 131 -124 122 -111 q 165 -136 139 -136 q 193 -129 186 -136 l 253 -72 q 304 -1 279 -47 q 347 111 335 54 l 490 753 q 493 778 493 769 q 478 826 493 806 q 461 843 474 833 l 578 963 q 613 971 596 981 l 663 939 z "},"L":{"ha":1314,"x_min":-200,"x_max":1264,"o":"m 1264 736 q 1089 417 1264 564 q 729 219 951 301 q 442 151 544 151 l 394 67 l 754 33 q 932 24 856 24 q 1094 43 1046 24 q 1122 64 1111 49 q 1110 -24 1119 6 q 990 -112 1079 -112 q 963 -111 972 -112 l 342 -31 q 226 -196 257 -158 q 97 -310 165 -272 q -86 -353 19 -353 q -176 -331 -153 -353 q -200 -269 -200 -310 q -179 -191 -200 -235 q -122 -111 -158 -147 l 8 22 q 79 65 32 47 q 183 82 126 82 l 361 71 l 401 147 l 307 142 l 307 167 l 414 176 q 602 590 508 386 q 782 874 696 793 q 1042 972 886 972 q 1214 897 1156 972 q 1264 736 1264 833 m 1133 658 q 1086 813 1133 763 q 958 864 1039 864 q 732 718 846 864 q 561 421 651 614 q 453 182 507 301 q 664 222 513 176 q 975 374 857 282 q 1133 658 1133 497 m 308 -26 q 231 -24 269 -25 q 131 -17 193 -24 q 100 -15 121 -15 q -60 -79 6 -15 q -117 -197 -117 -135 q -76 -267 -117 -240 q -6 -289 -42 -289 q 158 -221 76 -289 q 268 -94 215 -174 q 308 -26 288 -60 z "},"M":{"ha":1725,"x_min":8,"x_max":1678,"o":"m 1678 18 l 1561 -40 l 1540 394 q 1529 501 1540 461 q 1478 558 1514 558 q 1410 513 1438 558 l 1065 -47 l 1044 -47 l 990 654 q 983 695 990 679 q 956 711 975 711 q 892 668 926 711 q 860 619 882 657 l 408 -99 q 281 -239 356 -181 q 144 -297 207 -297 q 122 -294 136 -297 q 39 -246 60 -282 q 8 -56 8 -196 q 46 147 8 21 q 83 258 58 189 q 165 300 138 288 q 258 338 250 342 q 174 233 210 314 q 133 0 133 143 q 163 -157 133 -103 q 222 -203 188 -203 q 311 -167 268 -203 q 382 -82 347 -137 l 1025 925 q 1043 954 1033 939 q 1067 969 1053 969 q 1091 951 1083 969 q 1099 910 1099 932 l 1143 247 q 1147 211 1143 225 q 1164 197 1151 197 q 1211 233 1189 197 q 1233 272 1222 253 l 1469 663 q 1510 713 1489 694 q 1564 731 1532 731 q 1642 657 1624 731 q 1651 513 1651 617 l 1678 18 z "},"N":{"ha":1696,"x_min":6,"x_max":1644,"o":"m 1643 931 l 1625 619 q 1608 585 1625 599 q 1569 571 1592 571 q 1529 592 1543 571 q 1521 613 1525 599 l 1179 18 q 1153 -3 1167 -3 q 1133 13 1136 -3 l 1044 660 q 1033 710 1040 692 q 1006 736 1022 736 q 971 714 988 736 l 532 129 q 368 -12 464 39 q 186 -64 272 -64 q 43 15 90 -64 q 6 172 6 78 q 78 397 6 296 q 236 497 151 497 q 429 461 329 497 q 511 425 463 450 l 511 414 q 458 433 481 428 q 325 453 392 453 q 179 357 231 453 q 139 197 139 282 q 183 68 139 136 q 272 0 226 0 q 405 49 331 0 q 532 171 479 97 l 1094 944 q 1104 960 1101 956 q 1117 969 1110 968 q 1132 949 1129 971 l 1244 219 l 1261 217 q 1332 336 1267 221 q 1450 550 1342 354 q 1514 664 1513 664 l 1514 761 q 1489 803 1514 792 q 1463 808 1481 806 l 1469 825 l 1585 943 q 1622 957 1599 957 q 1639 949 1633 957 q 1643 931 1644 940 z "},"O":{"ha":1388,"x_min":13,"x_max":1339,"o":"m 1339 694 q 1211 367 1339 524 q 925 129 1107 238 q 582 -12 769 29 q 283 -43 444 -43 q 93 21 168 -43 q 13 207 13 90 q 110 471 13 336 q 354 709 192 583 q 688 900 517 835 q 1074 971 874 971 q 1265 897 1190 971 q 1339 694 1339 822 m 1207 644 q 1100 833 1207 769 q 885 885 1014 885 q 605 838 728 885 q 350 678 482 790 q 201 489 253 597 q 149 253 149 381 q 257 75 149 139 q 457 24 344 24 q 689 52 576 24 q 879 131 801 81 q 1110 339 1032 232 q 1207 644 1207 474 z "},"P":{"ha":1211,"x_min":8,"x_max":1161,"o":"m 1161 786 q 1113 494 1161 626 q 928 319 1047 319 q 806 376 863 319 q 761 435 788 394 l 776 435 q 797 418 789 424 q 850 400 825 400 q 968 490 917 400 q 1011 631 1011 567 q 999 781 1011 746 q 919 831 981 831 q 824 815 875 831 q 782 800 807 811 l 678 292 q 500 -135 629 49 q 203 -336 360 -336 q 61 -259 114 -336 q 8 -72 8 -182 q 90 215 8 47 q 286 503 171 383 q 490 675 376 596 q 664 778 564 726 q 735 813 731 813 l 754 910 l 807 910 l 789 825 q 879 857 844 847 q 1053 889 983 889 q 1124 857 1088 889 q 1161 786 1161 825 m 728 779 q 664 747 722 779 q 511 649 583 704 q 333 481 408 571 q 197 260 251 382 q 139 17 139 128 q 184 -170 139 -107 q 311 -233 229 -233 q 464 -146 399 -233 q 549 47 521 -71 l 728 779 z "},"Q":{"ha":1329,"x_min":0,"x_max":1279,"o":"m 1279 675 q 1117 333 1279 506 q 813 97 1001 211 q 649 8 665 8 l 743 -122 q 858 -242 796 -201 q 961 -276 911 -276 q 979 -275 974 -275 q 1118 -217 1061 -267 q 1175 -92 1175 -167 q 1149 25 1175 -32 q 1122 71 1140 43 l 1214 122 l 1229 122 q 1242 54 1242 97 q 1153 -222 1242 -85 q 900 -383 1049 -383 q 743 -308 821 -383 q 649 -189 708 -275 l 532 -18 q 454 -42 485 -35 q 296 -65 363 -65 q 254 -62 279 -65 q 86 -36 92 -37 q 0 63 0 -10 q 153 239 0 163 q 307 294 203 264 q 275 344 285 326 q 242 442 242 404 q 463 790 242 621 q 967 967 693 967 q 1207 883 1126 967 q 1279 675 1279 808 m 1158 592 q 1086 806 1158 733 q 817 888 1003 888 q 481 765 642 888 q 321 504 321 642 q 422 311 321 397 q 650 225 522 225 q 914 311 765 225 q 1039 397 963 339 q 1000 347 1019 372 q 872 256 947 292 q 642 204 767 204 q 565 208 601 204 q 494 217 528 211 l 638 26 q 772 101 653 26 q 1022 304 921 194 q 1158 592 1158 451 m 518 -1 q 433 124 465 82 q 258 250 333 250 q 151 213 194 250 q 108 108 108 175 q 182 -3 108 28 q 350 -25 236 -25 q 468 -14 408 -25 q 518 -1 488 -11 z "},"R":{"ha":913,"x_min":13,"x_max":997,"o":"m 997 -158 q 989 -158 992 -158 q 965 -160 976 -158 q 871 -149 911 -160 q 776 -89 808 -132 l 464 331 l 418 303 q 368 150 394 200 q 144 -3 289 -3 q 29 72 63 -3 q 13 147 19 97 l 104 219 l 124 225 q 135 142 126 169 q 236 58 161 58 q 326 138 299 58 q 342 217 335 164 l 251 289 l 361 318 l 468 825 q 400 807 446 825 q 332 776 376 797 q 403 854 343 810 q 482 903 451 892 l 493 968 l 540 968 l 529 903 q 579 908 551 906 q 636 911 607 911 q 656 910 650 910 q 797 858 740 910 q 854 722 854 807 q 749 522 854 613 q 603 408 675 465 l 867 0 q 908 -64 888 -32 q 997 -158 944 -112 m 729 651 q 692 770 729 724 q 586 824 656 817 q 567 825 578 825 q 550 825 556 825 q 522 825 536 825 q 511 824 518 825 l 418 338 q 617 453 588 431 q 729 651 729 540 z "},"S":{"ha":1400,"x_min":-118,"x_max":1344,"o":"m 1344 411 q 1299 236 1344 321 q 1240 142 1289 219 q 1172 52 1204 85 q 1079 -18 1139 19 q 961 -78 1006 -62 q 818 -99 901 -99 q 616 -64 733 -99 q 383 6 499 -29 q 192 40 268 40 q 7 -22 74 40 q -65 -129 -40 -65 q -89 -258 -89 -193 l -93 -414 l -99 -421 l -111 -421 l -118 -414 l -111 -261 q -71 -87 -111 -156 q 32 21 -42 -37 q 172 115 115 88 q 338 151 247 151 q 506 110 399 151 q 725 28 613 69 q 915 -14 838 -14 q 1005 -8 961 -14 q 1078 13 1049 -3 q 1221 147 1163 60 q 1266 231 1251 192 q 1281 317 1281 269 q 1279 342 1281 333 q 1246 428 1274 394 q 1169 461 1218 461 q 1149 463 1154 463 q 1122 459 1135 463 q 1099 453 1110 456 l 735 303 q 634 272 678 279 q 529 264 590 264 q 422 314 463 264 q 382 433 382 364 q 422 585 382 501 q 531 736 461 668 q 667 844 606 810 q 921 910 781 910 q 1024 901 976 910 q 1108 874 1072 893 q 1119 868 1117 871 q 1125 846 1131 860 l 1074 714 l 1056 729 q 996 774 1021 760 q 843 819 919 819 q 703 808 750 819 q 546 718 614 788 q 472 626 492 663 q 443 492 443 572 q 478 423 443 456 q 549 390 514 390 q 629 398 592 390 q 703 421 667 406 l 1078 578 q 1140 597 1108 592 q 1210 603 1172 603 q 1313 544 1281 596 q 1344 411 1344 493 z "},"T":{"ha":931,"x_min":11,"x_max":872,"o":"m 872 957 l 867 844 l 547 850 l 338 285 q 315 208 325 249 q 300 104 300 144 q 328 6 300 33 q 401 -18 351 -18 q 553 25 489 -18 q 683 147 593 53 l 707 151 l 697 122 q 640 68 668 94 q 490 -33 567 6 q 283 -89 381 -89 q 186 -46 218 -89 q 161 43 161 -11 q 175 143 161 89 q 217 272 189 197 l 431 851 q 389 851 406 851 q 224 829 289 851 q 54 694 117 793 q 37 640 40 674 q 33 600 33 606 q 53 557 33 572 q 101 542 72 542 q 133 549 114 542 q 142 553 136 549 l 72 442 q 42 478 51 461 q 11 597 11 528 q 17 651 11 626 q 38 703 22 676 q 153 864 113 826 q 508 950 243 950 l 872 957 z "},"U":{"ha":889,"x_min":11,"x_max":835,"o":"m 832 883 l 749 31 l 743 13 l 610 -47 q 643 115 626 -18 q 657 240 649 158 l 397 53 q 308 7 351 19 q 206 -6 265 -6 q 74 43 121 -6 q 26 167 26 92 l 50 789 q 31 836 50 822 q 11 843 25 840 l 118 943 q 147 933 138 938 q 178 894 178 918 q 172 836 178 881 q 167 760 167 792 l 149 258 q 185 128 149 178 q 306 69 226 69 q 378 78 350 69 q 443 113 407 86 l 657 269 l 697 839 l 678 869 l 800 925 q 824 924 813 928 q 832 883 835 921 z "},"V":{"ha":815,"x_min":13,"x_max":754,"o":"m 754 592 l 724 572 l 678 513 l 664 510 q 632 553 642 510 q 626 597 629 567 l 236 -89 l 213 -89 l 142 583 l 26 429 l 13 429 l 13 442 l 138 638 l 139 750 q 201 861 139 801 q 264 910 222 881 l 274 910 q 286 881 282 901 q 290 819 290 861 q 278 756 290 783 q 264 735 274 747 l 307 167 q 325 144 307 144 q 357 169 342 144 l 621 638 l 619 789 q 640 851 619 824 q 650 863 643 856 l 735 931 l 754 925 l 754 592 z "},"W":{"ha":1197,"x_min":11,"x_max":1143,"o":"m 1143 583 l 1054 519 q 1026 513 1043 513 q 999 535 1007 513 q 994 558 996 542 l 597 -89 l 578 -89 l 553 442 q 545 493 553 469 q 521 517 538 517 q 475 490 501 517 q 429 429 449 463 l 217 82 l 217 24 q 165 -39 217 13 q 113 -89 149 -56 l 101 -82 l 101 0 l 58 592 q 44 738 58 690 q 11 806 28 771 q 44 842 11 814 q 135 925 126 911 l 151 925 l 225 694 q 217 665 231 679 q 183 651 203 651 q 169 654 174 651 l 207 147 l 217 135 l 597 753 q 632 776 611 776 q 656 762 647 776 q 664 728 664 747 l 685 183 q 691 156 685 165 q 704 146 697 146 q 715 151 710 146 q 732 178 718 154 l 1008 621 l 1008 789 q 1019 863 1008 839 q 1039 883 1026 876 l 1107 915 q 1117 921 1114 919 q 1131 928 1125 928 q 1143 925 1132 928 l 1143 583 z "},"X":{"ha":1088,"x_min":13,"x_max":1040,"o":"m 1040 867 q 1007 783 1040 825 q 942 742 974 742 q 900 758 914 742 q 890 776 896 764 l 879 772 l 721 479 l 939 479 l 944 469 l 932 382 l 915 379 l 738 379 l 824 101 q 844 89 828 89 q 854 89 847 89 l 850 76 l 738 -19 q 715 -4 722 -11 q 697 31 701 11 l 639 326 l 560 178 q 419 -29 483 35 q 219 -119 331 -119 q 79 -82 136 -119 q 13 40 13 -37 q 115 224 13 153 q 219 272 149 247 l 219 258 q 175 219 189 238 q 129 86 129 164 q 163 -4 129 29 q 272 -43 201 -43 q 428 29 358 -43 q 538 193 478 81 l 626 361 l 626 378 l 472 378 l 431 367 l 431 389 l 468 472 l 479 476 l 607 476 q 564 643 578 588 q 508 819 519 811 l 489 832 l 493 844 l 597 943 l 610 943 l 613 910 l 708 501 l 892 858 q 935 917 910 894 q 988 940 961 940 q 1029 911 1014 940 q 1040 867 1040 889 z "},"Y":{"ha":900,"x_min":-279,"x_max":840,"o":"m 840 763 q 818 699 840 731 q 789 663 813 692 l -142 -476 q -161 -521 -161 -501 q -146 -545 -161 -537 q -107 -553 -131 -553 q -58 -537 -86 -553 l 443 -285 q 561 -204 517 -247 q 625 -74 625 -143 q 608 -17 625 -39 q 572 4 592 4 q 499 -14 535 4 q 469 -33 488 -19 l 453 -32 l 454 -19 l 678 129 l 690 122 l 761 0 q 779 -68 779 -31 q 700 -207 779 -139 q 574 -285 649 -250 l -142 -612 q -206 -632 -156 -618 q -253 -654 -242 -642 l -279 -660 l -279 -558 q -196 -501 -221 -529 q -158 -449 -175 -468 l 182 -32 q 190 3 190 -22 q 188 33 190 22 q 183 50 186 44 l 72 735 q 36 811 63 793 q 13 825 24 818 l 113 957 q 127 958 117 957 q 143 960 138 960 q 178 940 167 957 q 189 903 185 929 l 292 97 l 615 519 q 668 620 647 561 q 689 732 689 679 q 660 794 689 771 q 599 818 631 818 l 560 818 l 671 957 l 697 961 l 831 819 q 839 798 838 813 q 840 763 840 783 z "},"Z":{"ha":1017,"x_min":-147,"x_max":968,"o":"m 968 64 l 874 -60 q 726 -40 782 -46 q 450 -19 550 -19 q 176 -81 328 -19 q -42 -194 71 -124 q -131 -256 -86 -225 l -147 -247 l -76 -149 l 251 303 l 7 297 l 47 389 l 307 394 l 597 768 q 604 782 604 778 q 583 794 604 794 l 308 789 l 233 761 l 233 779 l 292 899 l 313 910 l 765 910 l 765 899 l 372 397 l 660 394 q 700 401 676 394 q 721 408 707 403 q 682 364 700 378 q 542 318 625 318 l 303 303 l -54 -158 q 57 -96 1 -126 q 297 22 196 -21 q 528 86 450 86 q 875 72 674 86 q 968 64 911 71 z "},"[":{"ha":382,"x_min":14,"x_max":319,"o":"m 319 -56 l 14 -56 l 14 1031 l 319 1031 l 319 968 l 119 968 l 119 0 l 319 0 l 319 -56 z "},"\\":{"ha":960,"x_min":1,"x_max":940,"o":"m 940 -53 l 803 -53 l 1 1024 l 132 1024 l 940 -53 z "},"]":{"ha":382,"x_min":14,"x_max":319,"o":"m 319 -56 l 14 -56 l 14 0 l 214 0 l 214 968 l 14 968 l 14 1031 l 319 1031 l 319 -56 z "},"^":{"ha":322,"x_min":17,"x_max":315,"o":"m 315 651 l 235 653 q 210 672 218 667 q 169 693 181 693 l 157 693 q 117 672 139 693 q 99 651 110 665 l 17 651 l 96 739 q 124 749 101 744 q 167 753 146 753 q 236 739 224 753 l 315 651 z "},"_":{"ha":904,"x_min":0,"x_max":906,"o":"m 906 -111 l 0 -111 l 0 -64 l 906 -64 l 906 -111 z "},"`":{"ha":342,"x_min":69,"x_max":250,"o":"m 247 865 q 228 841 244 849 q 189 833 213 833 q 126 878 179 833 q 72 933 74 922 q 76 962 69 949 q 96 979 82 975 q 119 979 114 985 l 190 917 q 229 894 192 915 q 247 865 250 882 z "},"a":{"ha":644,"x_min":8,"x_max":585,"o":"m 585 97 l 489 0 q 443 69 485 14 q 403 122 431 88 l 383 124 l 194 0 q 142 -22 171 -15 q 83 -29 113 -29 q 22 0 43 -29 q 8 31 15 10 l 297 303 q 328 323 311 315 q 364 331 344 331 q 400 327 388 331 q 421 313 413 324 l 585 97 m 360 153 q 347 200 360 179 q 296 229 329 229 q 193 181 238 229 q 157 113 157 140 q 174 76 157 93 q 215 58 192 58 q 306 93 251 58 q 360 153 360 128 z "},"b":{"ha":418,"x_min":3,"x_max":365,"o":"m 361 194 l 147 0 l 118 1 l 18 104 q 7 151 3 119 l 72 835 q 71 854 74 847 q 60 867 69 860 q 122 883 101 878 q 200 913 186 901 q 196 900 197 904 q 188 867 189 881 l 118 219 q 113 194 115 207 q 138 131 113 164 q 200 97 164 97 q 257 115 236 97 q 278 157 278 133 q 257 216 278 186 q 207 249 236 246 q 171 253 178 253 q 158 253 164 253 q 154 251 157 253 l 229 342 q 254 344 246 344 q 333 317 301 344 q 365 233 365 290 q 361 194 365 215 z "},"c":{"ha":360,"x_min":13,"x_max":300,"o":"m 300 311 q 292 285 300 294 l 260 251 l 242 251 q 226 271 233 265 q 160 292 201 292 q 119 284 135 292 q 104 257 104 276 q 103 239 103 244 q 133 133 103 182 q 210 83 164 83 l 278 82 l 154 0 l 117 0 q 46 39 79 0 q 13 114 13 78 q 39 207 13 150 q 67 258 47 225 l 169 361 q 235 354 214 358 q 300 311 300 340 z "},"d":{"ha":500,"x_min":7,"x_max":449,"o":"m 449 260 q 339 106 449 203 q 119 -1 219 -1 q 49 18 68 -1 q 31 69 31 38 q 71 199 31 135 q 113 251 83 219 l 200 264 q 176 225 183 239 q 151 156 151 179 q 176 109 151 126 q 235 92 200 92 q 308 115 274 92 q 343 172 343 139 q 317 239 343 213 q 289 258 308 247 l 53 372 q 10 419 18 389 q 8 449 7 429 l 90 572 l 104 578 q 104 557 104 567 q 111 513 104 535 q 142 479 118 492 l 338 367 q 393 335 375 347 q 449 260 449 296 z "},"e":{"ha":360,"x_min":6,"x_max":300,"o":"m 300 322 q 294 292 300 297 q 229 225 251 247 q 151 154 160 156 l 149 171 l 201 229 q 210 260 210 239 q 182 287 210 282 q 133 292 154 292 q 122 292 124 292 q 119 292 121 292 q 111 271 114 279 q 103 229 103 246 q 132 136 103 182 q 221 81 167 81 q 253 83 243 81 q 269 89 263 86 l 269 82 l 167 1 q 140 -1 156 0 q 100 -1 125 -1 q 37 41 68 -1 q 6 118 6 83 q 24 190 6 143 q 53 247 42 236 l 169 353 q 196 356 175 356 q 267 347 233 356 q 300 322 300 339 z "},"f":{"ha":574,"x_min":13,"x_max":513,"o":"m 513 963 l 479 872 q 454 910 465 897 q 382 947 421 947 q 339 945 351 947 q 313 932 326 943 q 253 835 274 903 q 233 689 233 768 l 200 308 l 421 308 l 382 225 l 189 225 l 138 -367 q 90 -603 125 -518 q 24 -689 69 -656 l 13 -689 l 93 225 l 13 225 l 19 240 l 99 313 l 135 657 q 190 838 146 768 q 293 943 221 886 q 356 979 324 967 q 442 996 397 996 q 492 988 472 996 q 513 963 513 981 z "},"g":{"ha":574,"x_min":-178,"x_max":519,"o":"m 519 342 l 513 229 l 364 229 l 449 319 q 474 337 460 332 q 501 342 489 342 q 519 342 514 342 m 514 -12 q 478 -153 514 -65 q 377 -334 442 -240 q 226 -487 313 -428 q 35 -554 129 -554 q -135 -489 -71 -554 q -178 -424 -156 -468 l -108 -308 q -62 -390 -83 -364 q 99 -474 4 -474 q 248 -432 178 -474 q 358 -317 318 -390 q 399 -217 386 -267 q 411 -114 411 -168 q 208 8 411 -24 q 4 115 4 40 q 60 229 4 182 l 194 342 l 308 331 q 333 310 319 329 q 347 265 347 292 q 344 237 347 247 q 338 219 342 226 l 240 113 l 403 89 q 482 56 450 82 q 514 -12 514 29 m 253 188 q 228 251 253 228 q 164 274 204 274 q 114 261 135 274 q 83 207 83 243 q 151 128 83 149 q 219 118 174 121 q 236 133 231 126 q 253 188 253 156 z "},"h":{"ha":474,"x_min":-99,"x_max":424,"o":"m 424 89 l -83 -697 l -99 -679 l -93 -662 l 242 -149 q 309 -31 297 -65 q 321 49 321 4 q 310 129 321 93 q 261 179 294 179 q 222 171 233 179 l 7 0 q 26 207 17 103 q 63 592 32 261 q 82 801 72 696 q 78 835 83 821 q 71 844 76 839 l 183 910 l 200 913 q 193 882 194 893 q 182 818 185 840 l 131 236 q 133 175 131 197 q 144 151 135 153 q 171 157 160 151 q 200 178 182 163 l 338 297 q 362 308 347 307 q 385 308 376 308 q 416 288 408 308 q 424 236 424 267 l 424 89 z "},"i":{"ha":272,"x_min":7,"x_max":218,"o":"m 218 481 q 213 463 218 472 q 207 454 211 460 q 192 440 204 447 q 166 423 179 432 q 136 397 153 414 q 101 367 106 367 l 76 367 q 60 378 67 367 q 53 408 53 389 q 97 480 53 447 q 185 513 142 513 q 210 503 203 513 q 218 481 218 494 m 213 76 l 113 0 l 97 0 q 22 99 44 21 q 7 224 7 153 q 7 253 7 238 q 8 264 7 257 l 122 308 q 129 206 124 240 q 210 83 149 99 l 213 76 z "},"j":{"ha":247,"x_min":-135,"x_max":204,"o":"m 204 508 q 199 490 204 500 q 193 482 197 488 q 178 467 190 475 q 152 451 165 460 q 122 425 139 442 q 88 394 92 394 l 63 394 q 46 406 53 394 q 39 436 39 417 q 83 508 39 475 q 171 540 128 540 q 197 531 189 540 q 204 508 204 522 m 147 188 l 72 -379 l 58 -418 l -124 -694 l -135 -674 q -62 -550 -86 -597 q -8 -386 -19 -462 q 24 -99 11 -235 q 36 118 36 38 q 32 171 36 156 q 22 224 32 196 q 11 247 19 233 l 135 308 q 142 286 140 294 q 150 225 150 254 q 149 206 150 217 q 147 188 147 194 z "},"k":{"ha":447,"x_min":1,"x_max":401,"o":"m 207 910 q 201 892 201 901 l 111 67 q 100 24 108 33 q 76 11 92 14 l 1 0 l 90 811 q 76 853 93 831 q 67 863 74 856 l 83 872 l 189 910 l 207 910 m 401 24 l 313 -47 l 158 101 l 225 158 q 246 180 239 169 q 253 206 253 190 q 235 247 253 224 q 217 267 229 254 l 338 347 q 354 322 349 332 q 372 267 372 290 q 364 239 372 250 q 338 217 356 228 l 258 164 l 401 24 z "},"l":{"ha":250,"x_min":11,"x_max":201,"o":"m 201 910 l 108 60 q 76 29 88 39 q 33 0 43 -1 l 19 0 q 13 21 14 4 q 11 58 11 38 q 11 79 11 75 q 11 82 11 81 l 83 697 q 86 730 86 714 q 86 754 86 746 q 68 842 86 815 q 58 851 65 846 l 183 910 l 201 910 z "},"m":{"ha":954,"x_min":8,"x_max":899,"o":"m 899 0 l 800 -82 l 765 89 q 744 143 757 125 q 696 168 726 168 q 632 151 649 168 l 468 0 l 421 135 q 397 181 410 169 q 365 192 383 192 q 325 182 343 192 q 292 154 315 176 l 124 0 l 71 171 q 33 215 61 201 q 8 222 25 219 l 113 307 q 132 310 124 310 q 157 300 147 310 q 182 251 172 285 l 222 113 l 361 236 q 460 276 406 276 q 519 229 507 276 l 553 104 l 663 200 q 782 250 719 250 q 844 233 824 250 q 869 182 864 215 l 899 0 z "},"n":{"ha":631,"x_min":13,"x_max":579,"o":"m 579 7 l 472 -43 l 442 124 q 417 179 435 158 q 364 204 394 204 q 326 195 346 204 q 297 176 307 186 l 131 0 q 119 107 126 72 q 35 214 96 214 l 13 213 l 89 289 q 99 294 96 293 q 138 307 124 307 q 183 288 160 307 q 213 247 206 268 l 249 151 l 360 251 q 401 276 379 269 q 457 282 424 282 q 535 249 508 282 q 567 164 563 215 l 579 7 z "},"o":{"ha":476,"x_min":10,"x_max":426,"o":"m 426 167 q 420 130 426 146 q 397 104 414 114 l 236 11 q 183 0 213 0 l 101 0 q 42 22 69 0 q 10 82 10 49 q 16 124 10 104 q 33 151 22 143 l 158 240 l 119 258 l 229 308 l 363 256 q 408 217 389 244 q 426 167 426 190 m 326 106 q 314 145 326 126 q 289 171 301 164 l 176 229 l 146 206 q 128 178 133 196 q 124 142 124 161 q 168 78 124 107 q 260 50 213 50 q 308 66 289 50 q 326 106 326 82 z "},"p":{"ha":544,"x_min":-11,"x_max":489,"o":"m 489 208 q 458 113 489 149 q 318 24 421 68 l 169 -40 l 97 -671 l 8 -718 l 8 -657 l 53 -194 l -11 -97 l 67 -60 l 76 40 q 78 67 76 53 q 79 89 79 82 q 60 164 79 144 l 1 222 l 118 308 l 164 267 q 186 217 181 251 q 189 183 188 206 l 307 294 l 449 285 q 480 262 471 285 q 489 208 489 239 m 368 122 q 342 186 368 167 q 275 206 317 206 q 221 185 253 206 q 193 164 211 178 l 169 -19 l 300 33 q 350 69 332 47 q 368 122 368 90 z "},"q":{"ha":476,"x_min":1,"x_max":425,"o":"m 425 193 l 338 -668 l 236 -718 l 308 60 q 310 76 310 71 q 276 168 310 131 q 190 219 232 219 q 140 194 167 219 q 114 146 114 169 q 175 56 114 83 q 236 40 194 47 q 207 11 218 21 q 131 -18 169 -18 q 47 -1 78 -18 q 1 82 1 24 q 6 110 1 99 q 24 131 11 121 l 258 308 l 274 308 l 421 207 l 425 193 z "},"r":{"ha":529,"x_min":13,"x_max":472,"o":"m 472 249 q 438 217 450 226 q 367 183 394 183 q 299 206 347 183 q 251 229 282 213 l 240 247 l 253 253 q 300 279 283 271 q 371 307 354 307 q 446 278 411 307 q 472 249 457 268 m 251 33 l 138 0 l 97 167 q 46 251 83 225 q 13 267 35 260 l 97 314 q 128 318 106 318 q 194 281 172 318 q 219 200 208 257 l 251 33 z "},"s":{"ha":360,"x_min":6,"x_max":311,"o":"m 311 135 q 261 38 311 75 q 47 -12 193 -12 q 14 -3 22 -12 q 6 24 6 7 q 24 51 6 39 q 50 60 42 64 l 131 18 q 169 13 142 13 q 201 29 189 13 q 214 65 214 46 q 167 113 208 113 l 67 113 q 40 133 46 113 q 33 168 33 153 q 125 285 33 231 q 222 326 196 326 l 267 326 l 272 314 l 260 253 l 249 251 l 188 279 l 169 285 q 144 269 154 285 q 135 232 135 254 q 149 194 135 204 q 188 183 163 183 l 267 183 q 299 169 286 183 q 311 135 311 156 z "},"t":{"ha":403,"x_min":8,"x_max":350,"o":"m 350 292 l 303 217 l 176 219 l 169 164 q 168 153 168 157 q 168 143 168 146 q 200 86 168 99 q 233 82 210 82 l 178 8 q 150 -1 169 -1 q 131 -1 138 -1 q 76 19 90 -1 q 63 74 63 39 q 64 98 63 86 q 67 122 65 110 l 78 225 l 8 225 l 13 240 l 93 308 l 113 435 l 207 435 l 189 319 q 205 293 186 300 q 257 286 224 286 q 319 294 283 286 q 350 303 331 297 l 350 292 z "},"u":{"ha":631,"x_min":8,"x_max":572,"o":"m 572 54 l 476 -26 q 375 31 410 -26 q 342 122 357 61 l 258 31 q 210 -2 236 7 q 146 -11 183 -11 q 31 131 68 -11 q 8 272 18 178 l 142 308 q 150 196 144 233 q 229 82 169 82 q 369 183 292 82 q 435 285 394 217 q 469 167 451 225 q 572 54 503 88 z "},"v":{"ha":588,"x_min":7,"x_max":533,"o":"m 533 200 q 489 142 533 160 l 135 0 l 89 147 q 40 207 76 189 q 7 217 29 213 l 104 297 q 139 308 117 308 q 172 289 160 308 q 189 247 181 276 l 240 60 l 360 118 q 385 143 374 125 q 397 182 397 161 q 364 224 397 213 q 331 229 353 226 l 453 326 l 468 319 l 519 260 q 531 238 529 249 q 533 200 533 226 z "},"w":{"ha":903,"x_min":8,"x_max":860,"o":"m 860 211 q 844 165 860 186 q 807 135 829 144 l 461 -32 l 411 89 q 382 142 397 121 q 349 167 363 168 l 303 164 l 124 7 q 107 0 117 0 q 99 8 101 0 l 64 164 q 33 201 58 192 q 8 207 25 204 l 11 222 l 67 285 q 94 299 74 292 q 132 306 114 306 q 171 278 164 306 l 213 122 l 418 308 l 493 247 l 561 31 l 678 93 q 722 160 722 117 q 686 208 722 197 q 653 214 668 214 q 643 214 647 214 q 639 213 642 214 l 772 308 q 815 279 801 290 q 860 211 860 243 z "},"x":{"ha":503,"x_min":-76,"x_max":454,"o":"m 454 294 l 367 183 q 340 211 350 203 q 281 239 308 239 q 243 221 267 239 q 233 213 240 218 l 300 122 q 312 99 307 111 q 317 81 317 86 q 307 60 317 68 l 233 0 l 164 108 l -53 -200 l -76 -200 l -76 -167 l 147 129 l 60 240 q 42 247 57 244 q 13 251 28 249 q 63 294 46 281 q 129 338 115 338 l 147 332 l 219 229 q 261 282 244 265 q 353 336 313 336 q 418 315 378 336 q 454 294 431 308 z "},"y":{"ha":533,"x_min":-104,"x_max":481,"o":"m 481 210 q 474 168 481 189 q 443 108 468 147 l -64 -674 l -90 -714 l -104 -718 q -103 -674 -104 -697 q -93 -637 -103 -650 l 357 33 q 372 86 372 57 q 351 160 372 125 q 299 194 329 194 q 274 188 283 194 q 251 167 264 182 l 118 0 l 104 0 q 96 88 99 50 q 1 251 82 221 l 90 303 l 126 307 q 194 225 172 307 q 207 142 201 199 l 319 300 q 335 303 329 303 q 364 307 358 307 q 440 288 410 307 q 481 210 481 263 z "},"z":{"ha":500,"x_min":1,"x_max":453,"o":"m 453 76 l 401 0 l 72 0 q 21 19 46 0 q 1 40 13 25 l 267 229 q 246 228 265 228 q 142 234 203 228 q 72 247 81 240 l 76 258 l 129 338 l 408 308 l 219 167 q 194 146 200 151 q 175 103 175 125 q 204 89 175 89 q 225 89 219 89 l 453 89 l 453 76 z "},"{":{"ha":414,"x_min":8,"x_max":353,"o":"m 353 -99 l 292 -99 q 194 -40 226 -65 q 97 131 97 38 q 122 240 97 194 q 181 353 181 347 q 94 457 181 403 q 8 500 67 474 q 93 539 65 522 q 178 650 178 590 q 139 738 178 671 q 100 889 100 804 q 196 1036 100 957 q 292 1101 228 1063 l 353 1101 q 263 1044 292 1067 q 172 917 172 975 q 222 789 172 907 q 247 681 247 731 q 161 549 247 611 q 75 500 133 528 q 165 444 136 467 q 256 303 256 375 q 218 204 256 275 q 181 67 181 133 q 267 -50 181 10 q 353 -99 294 -69 z "},"|":{"ha":172,"x_min":36,"x_max":124,"o":"m 124 -50 l 36 -50 l 36 953 l 124 953 l 124 -50 z "},"}":{"ha":414,"x_min":8,"x_max":353,"o":"m 353 500 q 267 457 294 474 q 181 353 181 404 q 222 265 181 326 q 264 131 264 204 q 167 -40 264 38 q 69 -99 135 -65 l 8 -99 q 94 -50 67 -69 q 181 67 181 10 q 143 204 181 133 q 106 303 106 275 q 196 444 106 374 q 286 500 225 467 q 200 549 228 528 q 114 681 114 611 q 151 818 114 742 q 189 917 189 894 q 99 1044 189 975 q 8 1101 69 1067 l 69 1101 q 165 1036 133 1061 q 261 889 261 957 q 238 765 261 818 q 183 650 210 707 q 268 540 183 592 q 353 500 296 524 z "},"~":{"ha":507,"x_min":13,"x_max":447,"o":"m 447 711 q 425 639 438 663 q 313 565 388 565 q 204 604 282 565 q 136 622 168 622 q 54 594 96 622 q 21 565 40 586 l 13 575 q 32 643 21 621 q 153 711 69 711 q 247 688 206 711 q 325 664 289 664 q 407 690 368 664 q 438 717 419 699 l 447 711 z "},"Ä":{"ha":1439,"x_min":-26,"x_max":1390,"o":"m 1390 272 l 1274 274 l 1279 24 l 1107 -53 l 1140 33 l 1139 278 l 801 285 l 596 -6 q 385 -219 494 -147 q 119 -300 261 -300 q 15 -262 53 -300 q -26 -135 -26 -219 q 42 78 -26 -6 q 171 169 90 138 q 240 189 219 189 q 242 181 242 183 q 242 163 244 168 q 160 50 192 114 q 119 -83 119 -29 q 148 -181 119 -143 q 229 -225 176 -219 q 436 -136 317 -232 q 600 40 535 -57 l 765 285 l 453 292 l 567 338 l 794 338 l 1164 915 q 1186 950 1175 932 q 1213 968 1200 968 q 1238 957 1238 968 l 1268 338 l 1390 338 l 1390 272 m 1133 338 q 1133 353 1133 343 q 1133 375 1133 364 q 1133 404 1133 393 q 1131 572 1133 511 q 1118 703 1129 632 q 1094 714 1114 719 q 1073 699 1081 710 q 1060 679 1065 688 l 832 338 l 1133 338 m 1372 1108 q 1365 1083 1372 1090 l 1297 1019 q 1269 1019 1290 1013 q 1244 1056 1244 1028 q 1247 1072 1244 1067 q 1267 1096 1250 1079 l 1310 1139 q 1326 1146 1317 1146 q 1339 1144 1335 1144 q 1372 1108 1372 1140 m 1181 1107 q 1174 1082 1181 1089 l 1106 1018 q 1078 1018 1099 1011 q 1053 1054 1053 1026 q 1056 1071 1053 1065 q 1075 1094 1058 1078 l 1118 1138 q 1135 1144 1125 1144 q 1147 1143 1143 1143 q 1181 1107 1181 1139 z "},"Å":{"ha":1439,"x_min":-26,"x_max":1390,"o":"m 1390 272 l 1274 274 l 1279 24 l 1107 -53 l 1140 33 l 1139 278 l 801 285 l 596 -6 q 385 -219 494 -147 q 119 -300 261 -300 q 15 -262 53 -300 q -26 -135 -26 -219 q 42 78 -26 -6 q 171 169 90 138 q 240 189 219 189 q 242 181 242 183 q 242 163 244 168 q 160 50 192 114 q 119 -83 119 -29 q 148 -181 119 -143 q 229 -225 176 -219 q 436 -136 317 -232 q 600 40 535 -57 l 765 285 l 453 292 l 567 338 l 794 338 l 1164 915 q 1186 950 1175 932 q 1213 968 1200 968 q 1238 957 1238 968 l 1268 338 l 1390 338 l 1390 272 m 1133 338 q 1133 353 1133 343 q 1133 375 1133 364 q 1133 404 1133 393 q 1131 572 1133 511 q 1118 703 1129 632 q 1094 714 1114 719 q 1073 699 1081 710 q 1060 679 1065 688 l 832 338 l 1133 338 m 1361 1163 q 1328 1058 1361 1104 q 1243 1013 1294 1013 q 1167 1042 1197 1013 q 1136 1117 1136 1071 q 1176 1208 1136 1160 q 1260 1257 1215 1257 q 1328 1228 1294 1257 q 1361 1163 1361 1199 m 1307 1114 q 1290 1145 1307 1124 q 1267 1183 1274 1167 q 1216 1155 1231 1174 q 1201 1111 1201 1136 q 1205 1088 1201 1100 q 1213 1063 1208 1076 q 1286 1091 1265 1079 q 1307 1114 1307 1103 z "},"Ç":{"ha":815,"x_min":11,"x_max":753,"o":"m 753 863 l 639 756 l 669 753 q 694 756 685 753 q 714 763 704 758 q 693 735 704 746 q 665 715 678 718 q 607 693 653 713 q 547 679 574 679 q 453 704 483 679 q 414 785 422 729 q 342 717 404 785 q 208 518 261 629 q 135 200 135 364 q 212 8 135 75 q 421 -60 289 -60 q 518 -37 474 -60 q 578 -1 563 -10 l 597 -1 q 496 -82 546 -42 q 314 -133 424 -133 l 283 -189 q 313 -180 299 -182 q 336 -178 326 -178 q 416 -201 382 -178 q 450 -261 450 -225 q 394 -360 450 -328 q 272 -387 347 -387 q 224 -373 249 -387 q 199 -337 199 -358 q 249 -276 194 -308 l 263 -272 q 225 -322 225 -308 q 240 -333 226 -332 q 267 -333 253 -333 q 336 -285 336 -333 q 312 -244 336 -262 q 246 -226 288 -226 q 211 -229 224 -226 l 254 -135 q 67 -50 136 -135 q 11 101 11 18 q 115 476 11 290 q 308 728 190 610 q 414 819 400 819 q 461 891 428 867 q 518 915 494 915 l 558 915 l 675 963 q 710 969 694 971 q 741 963 729 969 q 753 942 753 957 l 753 863 m 675 867 q 652 905 675 890 q 603 915 629 919 q 556 887 575 911 q 538 826 538 863 q 560 781 538 801 q 610 761 583 761 q 656 808 638 779 q 675 867 675 836 z "},"É":{"ha":742,"x_min":-8,"x_max":688,"o":"m 686 922 q 683 903 688 915 q 679 892 683 899 l 610 819 l 599 819 q 558 879 585 860 q 417 913 513 913 q 331 903 378 913 q 240 872 283 894 q 154 735 154 828 q 171 696 154 714 q 200 674 179 686 l 404 532 q 439 506 436 508 q 454 464 454 489 q 435 421 454 447 q 353 331 432 417 l 189 147 q 138 72 156 110 q 121 0 121 35 q 168 -86 121 -43 q 313 -137 225 -137 q 387 -126 357 -137 q 453 -82 417 -115 l 476 -60 q 488 -60 485 -60 q 500 -71 500 -61 l 292 -236 l 225 -240 q 65 -186 139 -240 q -8 -72 -8 -132 q 76 78 -8 -12 q 164 169 119 124 l 292 314 q 314 345 306 329 q 322 378 322 361 q 319 397 322 383 q 313 414 317 411 l 85 578 q 53 617 68 589 q 38 674 38 646 q 97 799 38 736 q 240 899 150 854 q 418 953 326 938 q 603 968 510 968 q 654 953 622 968 q 686 922 686 939 m 592 1129 q 539 1075 592 1119 q 475 1031 486 1031 q 434 1037 449 1031 q 417 1063 419 1043 q 440 1095 413 1082 q 474 1114 467 1108 l 544 1176 q 568 1176 550 1182 q 592 1129 592 1169 z "},"Ñ":{"ha":1696,"x_min":6,"x_max":1644,"o":"m 1643 931 l 1625 619 q 1608 585 1625 599 q 1569 571 1592 571 q 1529 592 1543 571 q 1521 613 1525 599 l 1179 18 q 1153 -3 1167 -3 q 1133 13 1136 -3 l 1044 660 q 1033 710 1040 692 q 1006 736 1022 736 q 971 714 988 736 l 532 129 q 368 -12 464 39 q 186 -64 272 -64 q 43 15 90 -64 q 6 172 6 78 q 78 397 6 296 q 236 497 151 497 q 429 461 329 497 q 511 425 463 450 l 511 414 q 458 433 481 428 q 325 453 392 453 q 179 357 231 453 q 139 197 139 282 q 183 68 139 136 q 272 0 226 0 q 405 49 331 0 q 532 171 479 97 l 1094 944 q 1104 960 1101 956 q 1117 969 1110 968 q 1132 949 1129 971 l 1244 219 l 1261 217 q 1332 336 1267 221 q 1450 550 1342 354 q 1514 664 1513 664 l 1514 761 q 1489 803 1514 792 q 1463 808 1481 806 l 1469 825 l 1585 943 q 1622 957 1599 957 q 1639 949 1633 957 q 1643 931 1644 940 m 1585 1189 q 1563 1117 1575 1140 q 1450 1043 1525 1043 q 1342 1082 1419 1043 q 1274 1100 1306 1100 q 1192 1072 1233 1100 q 1158 1043 1178 1064 l 1150 1053 q 1169 1121 1158 1099 q 1290 1189 1207 1189 q 1385 1165 1343 1189 q 1463 1142 1426 1142 q 1544 1168 1506 1142 q 1575 1194 1557 1176 l 1585 1189 z "},"Ö":{"ha":1388,"x_min":13,"x_max":1339,"o":"m 1339 694 q 1211 367 1339 524 q 925 129 1107 238 q 582 -12 769 29 q 283 -43 444 -43 q 93 21 168 -43 q 13 207 13 90 q 110 471 13 336 q 354 709 192 583 q 688 900 517 835 q 1074 971 874 971 q 1265 897 1190 971 q 1339 694 1339 822 m 1207 644 q 1100 833 1207 769 q 885 885 1014 885 q 605 838 728 885 q 350 678 482 790 q 201 489 253 597 q 149 253 149 381 q 257 75 149 139 q 457 24 344 24 q 689 52 576 24 q 879 131 801 81 q 1110 339 1032 232 q 1207 644 1207 474 m 1197 1138 q 1190 1113 1197 1119 l 1122 1049 q 1094 1049 1115 1042 q 1069 1085 1069 1057 q 1072 1101 1069 1096 q 1092 1125 1075 1108 l 1135 1168 q 1151 1175 1142 1175 q 1164 1174 1160 1174 q 1197 1138 1197 1169 m 1006 1136 q 999 1111 1006 1118 l 931 1047 q 903 1047 924 1040 q 878 1083 878 1056 q 881 1100 878 1094 q 900 1124 883 1107 l 943 1167 q 960 1174 950 1174 q 972 1172 968 1172 q 1006 1136 1006 1168 z "},"Ü":{"ha":889,"x_min":11,"x_max":835,"o":"m 832 883 l 749 31 l 743 13 l 610 -47 q 643 115 626 -18 q 657 240 649 158 l 397 53 q 308 7 351 19 q 206 -6 265 -6 q 74 43 121 -6 q 26 167 26 92 l 50 789 q 31 836 50 822 q 11 843 25 840 l 118 943 q 147 933 138 938 q 178 894 178 918 q 172 836 178 881 q 167 760 167 792 l 149 258 q 185 128 149 178 q 306 69 226 69 q 378 78 350 69 q 443 113 407 86 l 657 269 l 697 839 l 678 869 l 800 925 q 824 924 813 928 q 832 883 835 921 m 656 1108 q 649 1083 656 1090 l 581 1019 q 553 1019 574 1013 q 528 1056 528 1028 q 531 1072 528 1067 q 550 1096 533 1079 l 593 1139 q 610 1146 600 1146 q 622 1144 618 1144 q 656 1108 656 1140 m 464 1107 q 457 1082 464 1089 l 389 1018 q 361 1018 382 1011 q 336 1054 336 1026 q 339 1071 336 1065 q 358 1094 342 1078 l 401 1138 q 418 1144 408 1144 q 431 1143 426 1143 q 464 1107 464 1139 z "},"á":{"ha":644,"x_min":8,"x_max":585,"o":"m 585 97 l 489 0 q 443 69 485 14 q 403 122 431 88 l 383 124 l 194 0 q 142 -22 171 -15 q 83 -29 113 -29 q 22 0 43 -29 q 8 31 15 10 l 297 303 q 328 323 311 315 q 364 331 344 331 q 400 327 388 331 q 421 313 413 324 l 585 97 m 360 153 q 347 200 360 179 q 296 229 329 229 q 193 181 238 229 q 157 113 157 140 q 174 76 157 93 q 215 58 192 58 q 306 93 251 58 q 360 153 360 128 m 535 522 q 482 468 535 513 q 418 424 429 424 q 377 430 392 424 q 360 456 363 436 q 383 488 356 475 q 417 507 410 501 l 488 569 q 511 569 493 575 q 535 522 535 563 z "},"à":{"ha":644,"x_min":8,"x_max":585,"o":"m 585 97 l 489 0 q 443 69 485 14 q 403 122 431 88 l 383 124 l 194 0 q 142 -22 171 -15 q 83 -29 113 -29 q 22 0 43 -29 q 8 31 15 10 l 297 303 q 328 323 311 315 q 364 331 344 331 q 400 327 388 331 q 421 313 413 324 l 585 97 m 360 153 q 347 200 360 179 q 296 229 329 229 q 193 181 238 229 q 157 113 157 140 q 174 76 157 93 q 215 58 192 58 q 306 93 251 58 q 360 153 360 128 m 392 429 q 373 405 389 413 q 333 397 357 397 q 271 442 324 397 q 217 497 218 486 q 220 526 214 513 q 240 543 226 539 q 264 543 258 549 l 335 481 q 374 458 336 479 q 392 429 394 446 z "},"â":{"ha":644,"x_min":8,"x_max":585,"o":"m 585 97 l 489 0 q 443 69 485 14 q 403 122 431 88 l 383 124 l 194 0 q 142 -22 171 -15 q 83 -29 113 -29 q 22 0 43 -29 q 8 31 15 10 l 297 303 q 328 323 311 315 q 364 331 344 331 q 400 327 388 331 q 421 313 413 324 l 585 97 m 360 153 q 347 200 360 179 q 296 229 329 229 q 193 181 238 229 q 157 113 157 140 q 174 76 157 93 q 215 58 192 58 q 306 93 251 58 q 360 153 360 128 m 506 406 l 425 407 q 400 426 408 421 q 360 447 371 447 l 347 447 q 307 426 329 447 q 289 406 300 419 l 207 406 l 286 493 q 314 503 292 499 q 357 507 336 507 q 426 493 414 507 l 506 406 z "},"ä":{"ha":644,"x_min":8,"x_max":585,"o":"m 585 97 l 489 0 q 443 69 485 14 q 403 122 431 88 l 383 124 l 194 0 q 142 -22 171 -15 q 83 -29 113 -29 q 22 0 43 -29 q 8 31 15 10 l 297 303 q 328 323 311 315 q 364 331 344 331 q 400 327 388 331 q 421 313 413 324 l 585 97 m 360 153 q 347 200 360 179 q 296 229 329 229 q 193 181 238 229 q 157 113 157 140 q 174 76 157 93 q 215 58 192 58 q 306 93 251 58 q 360 153 360 128 m 546 471 q 539 446 546 453 l 471 382 q 443 382 464 375 q 418 418 418 390 q 421 435 418 429 q 440 458 424 442 l 483 501 q 500 508 490 508 q 513 507 508 507 q 546 471 546 503 m 354 469 q 347 444 354 451 l 279 381 q 251 381 272 374 q 226 417 226 389 q 229 433 226 428 q 249 457 232 440 l 292 500 q 308 507 299 507 q 321 506 317 506 q 354 469 354 501 z "},"ã":{"ha":644,"x_min":8,"x_max":585,"o":"m 585 97 l 489 0 q 443 69 485 14 q 403 122 431 88 l 383 124 l 194 0 q 142 -22 171 -15 q 83 -29 113 -29 q 22 0 43 -29 q 8 31 15 10 l 297 303 q 328 323 311 315 q 364 331 344 331 q 400 327 388 331 q 421 313 413 324 l 585 97 m 360 153 q 347 200 360 179 q 296 229 329 229 q 193 181 238 229 q 157 113 157 140 q 174 76 157 93 q 215 58 192 58 q 306 93 251 58 q 360 153 360 128 m 542 510 q 524 453 533 471 q 439 396 494 396 q 356 425 414 396 q 304 440 325 440 q 242 418 274 440 q 217 396 232 411 l 211 403 q 226 456 218 439 q 318 510 254 510 q 390 491 358 510 q 449 472 422 472 q 510 493 481 472 q 533 514 519 500 l 542 510 z "},"å":{"ha":644,"x_min":8,"x_max":585,"o":"m 585 97 l 489 0 q 443 69 485 14 q 403 122 431 88 l 383 124 l 194 0 q 142 -22 171 -15 q 83 -29 113 -29 q 22 0 43 -29 q 8 31 15 10 l 297 303 q 328 323 311 315 q 364 331 344 331 q 400 327 388 331 q 421 313 413 324 l 585 97 m 360 153 q 347 200 360 179 q 296 229 329 229 q 193 181 238 229 q 157 113 157 140 q 174 76 157 93 q 215 58 192 58 q 306 93 251 58 q 360 153 360 128 m 486 504 q 457 419 486 456 q 383 382 428 382 q 318 406 344 382 q 292 467 292 429 q 326 542 292 501 q 399 582 361 582 q 456 558 426 582 q 486 504 486 533 m 439 464 q 426 489 439 474 q 404 521 408 511 q 360 499 374 514 q 347 463 347 483 q 349 446 347 453 q 357 422 356 428 q 439 464 439 447 z "},"ç":{"ha":360,"x_min":13,"x_max":300,"o":"m 300 311 q 292 285 300 294 l 260 251 l 242 251 q 226 271 233 265 q 160 292 201 292 q 119 284 135 292 q 104 257 104 276 q 103 239 103 244 q 133 133 103 182 q 210 83 164 83 l 278 82 l 154 0 l 132 0 l 119 -25 q 146 -19 131 -19 q 185 -31 168 -19 q 201 -61 201 -43 q 176 -110 201 -94 q 114 -125 150 -125 q 90 -117 101 -125 q 78 -100 78 -110 q 103 -69 75 -85 l 110 -67 q 94 -85 101 -75 q 90 -92 93 -87 q 111 -97 92 -97 q 146 -74 146 -97 q 101 -43 146 -43 l 83 -44 l 104 1 q 41 45 69 8 q 13 114 13 82 q 39 207 13 150 q 67 258 47 225 l 169 361 q 235 354 214 358 q 300 311 300 340 z "},"é":{"ha":360,"x_min":6,"x_max":354,"o":"m 300 322 q 294 292 300 297 q 229 225 251 247 q 151 154 160 156 l 149 171 l 201 229 q 210 260 210 239 q 182 287 210 282 q 133 292 154 292 q 122 292 124 292 q 119 292 121 292 q 111 271 114 279 q 103 229 103 246 q 132 136 103 182 q 221 81 167 81 q 253 83 243 81 q 269 89 263 86 l 269 82 l 167 1 q 140 -1 156 0 q 100 -1 125 -1 q 37 41 68 -1 q 6 118 6 83 q 24 190 6 143 q 53 247 42 236 l 169 353 q 196 356 175 356 q 267 347 233 356 q 300 322 300 339 m 354 515 q 301 461 354 506 q 238 417 249 417 q 197 423 211 417 q 179 449 182 429 q 202 481 175 468 q 236 500 229 494 l 307 563 q 331 563 313 568 q 354 515 354 556 z "},"è":{"ha":360,"x_min":6,"x_max":300,"o":"m 300 322 q 294 292 300 297 q 229 225 251 247 q 151 154 160 156 l 149 171 l 201 229 q 210 260 210 239 q 182 287 210 282 q 133 292 154 292 q 122 292 124 292 q 119 292 121 292 q 111 271 114 279 q 103 229 103 246 q 132 136 103 182 q 221 81 167 81 q 253 83 243 81 q 269 89 263 86 l 269 82 l 167 1 q 140 -1 156 0 q 100 -1 125 -1 q 37 41 68 -1 q 6 118 6 83 q 24 190 6 143 q 53 247 42 236 l 169 353 q 196 356 175 356 q 267 347 233 356 q 300 322 300 339 m 229 456 q 210 431 226 439 q 171 424 194 424 q 108 468 161 424 q 54 524 56 513 q 58 552 51 539 q 78 569 64 565 q 101 569 96 575 l 172 507 q 211 485 174 506 q 229 456 232 472 z "},"ê":{"ha":360,"x_min":6,"x_max":382,"o":"m 300 322 q 294 292 300 297 q 229 225 251 247 q 151 154 160 156 l 149 171 l 201 229 q 210 260 210 239 q 182 287 210 282 q 133 292 154 292 q 122 292 124 292 q 119 292 121 292 q 111 271 114 279 q 103 229 103 246 q 132 136 103 182 q 221 81 167 81 q 253 83 243 81 q 269 89 263 86 l 269 82 l 167 1 q 140 -1 156 0 q 100 -1 125 -1 q 37 41 68 -1 q 6 118 6 83 q 24 190 6 143 q 53 247 42 236 l 169 353 q 196 356 175 356 q 267 347 233 356 q 300 322 300 339 m 382 422 l 301 424 q 276 443 285 438 q 236 464 247 464 l 224 464 q 183 443 206 464 q 165 422 176 436 l 83 422 l 163 510 q 190 519 168 515 q 233 524 213 524 q 303 510 290 524 l 382 422 z "},"ë":{"ha":360,"x_min":6,"x_max":385,"o":"m 300 322 q 294 292 300 297 q 229 225 251 247 q 151 154 160 156 l 149 171 l 201 229 q 210 260 210 239 q 182 287 210 282 q 133 292 154 292 q 122 292 124 292 q 119 292 121 292 q 111 271 114 279 q 103 229 103 246 q 132 136 103 182 q 221 81 167 81 q 253 83 243 81 q 269 89 263 86 l 269 82 l 167 1 q 140 -1 156 0 q 100 -1 125 -1 q 37 41 68 -1 q 6 118 6 83 q 24 190 6 143 q 53 247 42 236 l 169 353 q 196 356 175 356 q 267 347 233 356 q 300 322 300 339 m 385 532 q 378 507 385 514 l 310 443 q 282 443 303 436 q 257 479 257 451 q 260 496 257 490 q 279 519 263 503 l 322 563 q 339 569 329 569 q 351 568 347 568 q 385 532 385 564 m 193 531 q 186 506 193 513 l 118 442 q 90 442 111 435 q 65 478 65 450 q 68 494 65 489 q 88 518 71 501 l 131 561 q 147 568 138 568 q 160 567 156 567 q 193 531 193 563 z "},"í":{"ha":272,"x_min":7,"x_max":235,"o":"m 210 78 q 200 63 210 69 l 131 8 q 122 1 126 4 q 104 0 118 0 q 22 90 46 0 q 7 235 7 149 q 7 256 7 244 q 8 264 7 258 l 122 308 l 122 264 q 149 144 122 192 q 210 78 179 111 m 235 490 q 182 436 235 481 q 118 392 129 392 q 77 398 92 392 q 60 424 63 404 q 83 456 56 443 q 117 475 110 469 l 188 538 q 211 538 193 543 q 235 490 235 531 z "},"ì":{"ha":272,"x_min":-87,"x_max":210,"o":"m 210 78 q 200 63 210 69 l 131 8 q 122 1 126 4 q 104 0 118 0 q 22 90 46 0 q 7 235 7 149 q 7 256 7 244 q 8 264 7 258 l 122 308 l 122 264 q 149 144 122 192 q 210 78 179 111 m 90 424 q 72 399 88 407 q 32 392 56 392 q -31 436 22 392 q -85 492 -83 481 q -81 520 -87 507 q -61 538 -75 533 q -37 538 -43 543 l 33 475 q 72 453 35 474 q 90 424 93 440 z "},"î":{"ha":272,"x_min":-74,"x_max":225,"o":"m 210 78 q 200 63 210 69 l 131 8 q 122 1 126 4 q 104 0 118 0 q 22 90 46 0 q 7 235 7 149 q 7 256 7 244 q 8 264 7 258 l 122 308 l 122 264 q 149 144 122 192 q 210 78 179 111 m 225 390 l 144 392 q 119 411 128 406 q 79 432 90 432 l 67 432 q 26 411 49 432 q 8 390 19 404 l -74 390 l 6 478 q 33 488 11 483 q 76 492 56 492 q 146 478 133 492 l 225 390 z "},"ï":{"ha":272,"x_min":-75,"x_max":244,"o":"m 210 78 q 200 63 210 69 l 131 8 q 122 1 126 4 q 104 0 118 0 q 22 90 46 0 q 7 235 7 149 q 7 256 7 244 q 8 264 7 258 l 122 308 l 122 264 q 149 144 122 192 q 210 78 179 111 m 244 497 q 238 472 244 479 l 169 408 q 142 408 163 401 q 117 444 117 417 q 119 461 117 456 q 139 485 122 468 l 182 528 q 199 535 189 535 q 211 533 207 533 q 244 497 244 529 m 53 496 q 46 471 53 478 l -22 407 q -50 407 -29 400 q -75 443 -75 415 q -72 460 -75 454 q -53 483 -69 467 l -10 526 q 7 533 -3 533 q 19 532 15 532 q 53 496 53 528 z "},"ñ":{"ha":640,"x_min":13,"x_max":579,"o":"m 579 7 l 472 -43 l 442 124 q 417 179 435 158 q 364 204 394 204 q 326 195 346 204 q 297 176 307 186 l 131 0 q 119 107 126 72 q 35 214 96 214 l 13 213 l 89 289 q 99 294 96 293 q 138 307 124 307 q 183 288 160 307 q 213 247 206 268 l 249 151 l 360 251 q 401 276 379 269 q 457 282 424 282 q 535 249 508 282 q 567 164 563 215 l 579 7 m 463 490 q 449 438 456 454 q 375 383 424 383 q 318 404 353 383 q 261 425 283 425 q 210 404 236 425 q 188 383 201 397 l 182 390 q 194 440 188 424 q 272 490 218 490 q 334 473 307 490 q 383 456 361 456 q 436 475 411 456 q 456 494 444 481 l 463 490 z "},"ó":{"ha":476,"x_min":10,"x_max":426,"o":"m 426 167 q 420 130 426 146 q 397 104 414 114 l 236 11 q 183 0 213 0 l 101 0 q 42 22 69 0 q 10 82 10 49 q 16 124 10 104 q 33 151 22 143 l 158 240 l 119 258 l 229 308 l 363 256 q 408 217 389 244 q 426 167 426 190 m 326 106 q 314 145 326 126 q 289 171 301 164 l 176 229 l 146 206 q 128 178 133 196 q 124 142 124 161 q 168 78 124 107 q 260 50 213 50 q 308 66 289 50 q 326 106 326 82 m 383 469 q 331 415 383 460 q 267 371 278 371 q 226 377 240 371 q 208 403 211 383 q 231 435 204 422 q 265 454 258 449 l 336 517 q 360 517 342 522 q 383 469 383 510 z "},"ò":{"ha":476,"x_min":10,"x_max":426,"o":"m 426 167 q 420 130 426 146 q 397 104 414 114 l 236 11 q 183 0 213 0 l 101 0 q 42 22 69 0 q 10 82 10 49 q 16 124 10 104 q 33 151 22 143 l 158 240 l 119 258 l 229 308 l 363 256 q 408 217 389 244 q 426 167 426 190 m 326 106 q 314 145 326 126 q 289 171 301 164 l 176 229 l 146 206 q 128 178 133 196 q 124 142 124 161 q 168 78 124 107 q 260 50 213 50 q 308 66 289 50 q 326 106 326 82 m 243 408 q 224 384 240 392 q 185 376 208 376 q 122 421 175 376 q 68 476 69 465 q 72 505 65 492 q 92 522 78 518 q 115 522 110 528 l 186 460 q 225 438 188 458 q 243 408 246 425 z "},"ô":{"ha":476,"x_min":10,"x_max":426,"o":"m 426 167 q 420 130 426 146 q 397 104 414 114 l 236 11 q 183 0 213 0 l 101 0 q 42 22 69 0 q 10 82 10 49 q 16 124 10 104 q 33 151 22 143 l 158 240 l 119 258 l 229 308 l 363 256 q 408 217 389 244 q 426 167 426 190 m 326 106 q 314 145 326 126 q 289 171 301 164 l 176 229 l 146 206 q 128 178 133 196 q 124 142 124 161 q 168 78 124 107 q 260 50 213 50 q 308 66 289 50 q 326 106 326 82 m 383 379 l 303 381 q 278 400 286 394 q 238 421 249 421 l 225 421 q 185 400 207 421 q 167 379 178 393 l 85 379 l 164 467 q 192 476 169 472 q 235 481 214 481 q 304 467 292 481 l 383 379 z "},"ö":{"ha":476,"x_min":10,"x_max":426,"o":"m 426 167 q 420 130 426 146 q 397 104 414 114 l 236 11 q 183 0 213 0 l 101 0 q 42 22 69 0 q 10 82 10 49 q 16 124 10 104 q 33 151 22 143 l 158 240 l 119 258 l 229 308 l 363 256 q 408 217 389 244 q 426 167 426 190 m 326 106 q 314 145 326 126 q 289 171 301 164 l 176 229 l 146 206 q 128 178 133 196 q 124 142 124 161 q 168 78 124 107 q 260 50 213 50 q 308 66 289 50 q 326 106 326 82 m 406 465 q 399 440 406 447 l 331 376 q 303 376 324 369 q 278 413 278 385 q 281 429 278 424 q 300 453 283 436 l 343 496 q 360 503 350 503 q 372 501 368 501 q 406 465 406 497 m 214 464 q 207 439 214 446 l 139 375 q 111 375 132 368 q 86 411 86 383 q 89 428 86 422 q 108 451 92 435 l 151 494 q 168 501 158 501 q 181 500 176 500 q 214 464 214 496 z "},"õ":{"ha":476,"x_min":10,"x_max":426,"o":"m 426 167 q 420 130 426 146 q 397 104 414 114 l 236 11 q 183 0 213 0 l 101 0 q 42 22 69 0 q 10 82 10 49 q 16 124 10 104 q 33 151 22 143 l 158 240 l 119 258 l 229 308 l 363 256 q 408 217 389 244 q 426 167 426 190 m 326 106 q 314 145 326 126 q 289 171 301 164 l 176 229 l 146 206 q 128 178 133 196 q 124 142 124 161 q 168 78 124 107 q 260 50 213 50 q 308 66 289 50 q 326 106 326 82 m 392 488 q 376 433 385 451 q 300 379 351 379 q 238 401 274 379 q 181 422 201 422 q 125 401 153 422 q 101 379 117 394 l 96 388 q 110 438 101 421 q 192 488 135 488 q 256 470 228 488 q 308 453 285 453 q 364 472 338 453 q 385 492 372 478 l 392 488 z "},"ú":{"ha":631,"x_min":8,"x_max":572,"o":"m 572 54 l 476 -26 q 375 31 410 -26 q 342 122 357 61 l 258 31 q 210 -2 236 7 q 146 -11 183 -11 q 31 131 68 -11 q 8 272 18 178 l 142 308 q 150 196 144 233 q 229 82 169 82 q 369 183 292 82 q 435 285 394 217 q 469 167 451 225 q 572 54 503 88 m 431 454 q 378 400 431 444 q 314 356 325 356 q 273 362 288 356 q 256 388 258 368 q 278 420 251 407 q 313 439 306 433 l 383 501 q 407 501 389 507 q 431 454 431 494 z "},"ù":{"ha":631,"x_min":8,"x_max":572,"o":"m 572 54 l 476 -26 q 375 31 410 -26 q 342 122 357 61 l 258 31 q 210 -2 236 7 q 146 -11 183 -11 q 31 131 68 -11 q 8 272 18 178 l 142 308 q 150 196 144 233 q 229 82 169 82 q 369 183 292 82 q 435 285 394 217 q 469 167 451 225 q 572 54 503 88 m 313 407 q 294 383 310 390 q 254 375 278 375 q 192 419 244 375 q 138 475 139 464 q 141 503 135 490 q 161 521 147 517 q 185 521 179 526 l 256 458 q 294 436 257 457 q 313 407 315 424 z "},"û":{"ha":631,"x_min":8,"x_max":572,"o":"m 572 54 l 476 -26 q 375 31 410 -26 q 342 122 357 61 l 258 31 q 210 -2 236 7 q 146 -11 183 -11 q 31 131 68 -11 q 8 272 18 178 l 142 308 q 150 196 144 233 q 229 82 169 82 q 369 183 292 82 q 435 285 394 217 q 469 167 451 225 q 572 54 503 88 m 432 393 l 351 394 q 326 414 335 408 q 286 435 297 435 l 274 435 q 233 414 256 435 q 215 393 226 407 l 133 393 l 213 481 q 240 490 218 486 q 283 494 263 494 q 353 481 340 494 l 432 393 z "},"ü":{"ha":631,"x_min":8,"x_max":572,"o":"m 572 54 l 476 -26 q 375 31 410 -26 q 342 122 357 61 l 258 31 q 210 -2 236 7 q 146 -11 183 -11 q 31 131 68 -11 q 8 272 18 178 l 142 308 q 150 196 144 233 q 229 82 169 82 q 369 183 292 82 q 435 285 394 217 q 469 167 451 225 q 572 54 503 88 m 460 458 q 453 433 460 440 l 385 369 q 357 369 378 363 q 332 406 332 378 q 335 422 332 417 q 354 446 338 429 l 397 489 q 414 496 404 496 q 426 494 422 494 q 460 458 460 490 m 268 457 q 261 432 268 439 l 193 368 q 165 368 186 361 q 140 404 140 376 q 143 421 140 415 q 163 444 146 428 l 206 488 q 222 494 213 494 q 235 493 231 493 q 268 457 268 489 z "},"†":{"ha":767,"x_min":6,"x_max":703,"o":"m 703 586 q 663 569 699 576 q 644 567 657 569 l 403 560 l 344 -107 q 313 -137 324 -128 q 269 -167 279 -168 l 256 -167 q 249 -146 250 -162 q 247 -108 247 -129 q 247 -87 247 -92 q 247 -85 247 -86 q 257 42 251 -21 q 283 323 269 176 q 307 557 297 469 l 181 554 q 89 533 118 554 q 71 511 79 526 l 8 618 l 6 635 l 317 647 l 319 669 q 322 703 322 686 q 322 728 322 719 q 304 835 322 794 q 294 851 301 842 l 419 910 l 438 910 l 413 650 l 644 660 q 672 635 664 643 q 701 599 700 607 l 703 586 z "},"°":{"ha":458,"x_min":118,"x_max":374,"o":"m 374 860 q 338 767 374 806 q 250 729 303 729 q 157 764 196 729 q 118 851 118 799 q 153 944 118 906 q 242 983 188 983 q 335 949 296 983 q 374 860 374 914 m 301 861 q 282 901 301 886 q 235 917 263 917 q 199 897 213 917 q 185 850 185 878 q 203 815 185 829 q 247 800 222 800 q 287 819 272 800 q 301 861 301 838 z "},"¢":{"ha":360,"x_min":-25,"x_max":333,"o":"m 333 389 l 288 332 q 300 311 300 324 q 292 285 300 294 l 260 251 l 242 251 l 233 264 l 131 136 q 165 97 146 111 q 210 83 185 83 l 278 82 l 154 0 l 117 0 q 81 9 99 0 q 49 35 64 18 l 21 -1 l -25 -1 l 26 64 q 13 114 11 93 q 39 207 13 150 q 67 258 47 225 l 169 361 q 206 358 186 360 q 251 349 225 357 l 283 389 l 333 389 m 200 283 q 160 292 185 292 q 119 284 135 292 q 104 257 104 276 q 103 238 103 244 q 114 174 103 210 l 200 283 z "},"£":{"ha":1188,"x_min":-181,"x_max":1138,"o":"m 1138 660 l 1019 593 q 996 774 1019 706 q 932 843 972 843 q 808 771 882 843 q 665 594 742 706 q 528 376 606 507 l 660 383 q 750 403 719 383 q 768 422 760 408 l 828 335 l 831 321 l 482 300 q 390 131 426 201 q 356 60 376 103 l 679 31 q 843 22 779 22 q 985 39 942 22 q 1010 57 999 44 q 999 -22 1007 4 q 890 -101 971 -101 q 867 -100 875 -101 l 307 -28 q 204 -176 228 -147 q 83 -283 147 -247 q -78 -318 19 -318 q -159 -299 -137 -318 q -181 -243 -181 -279 q -161 -172 -181 -211 q -110 -100 -142 -133 l 7 19 q 72 58 28 42 q 165 74 115 74 l 325 64 l 372 158 l 435 297 l 203 283 q 176 304 185 297 q 150 333 150 326 l 147 343 q 189 358 153 353 q 206 361 194 358 l 468 374 q 596 642 557 572 q 738 814 663 758 q 938 875 821 875 q 1067 835 1015 875 q 1138 660 1138 779 m 278 -24 q 208 -21 243 -22 q 140 -17 172 -19 q 90 -14 108 -14 q -54 -71 4 -14 q -106 -178 -106 -121 q -69 -240 -106 -217 q -6 -260 -39 -260 q 199 -142 99 -260 q 278 -24 232 -103 z "},"§":{"ha":1035,"x_min":-199,"x_max":971,"o":"m 971 501 q 939 379 971 438 q 897 313 935 371 q 853 254 874 276 q 797 208 832 232 q 811 167 808 178 q 819 122 819 138 q 799 22 819 69 q 747 -67 789 0 q 699 -128 722 -106 q 633 -178 676 -151 q 571 -212 590 -204 q 451 -235 522 -235 q 285 -204 388 -235 q 13 -137 61 -137 q -117 -181 -72 -137 q -167 -278 -144 -207 q -183 -346 -174 -301 l -199 -349 q -171 -267 -182 -296 q -99 -150 -136 -179 q -1 -85 -39 -103 q 115 -60 51 -60 q 360 -137 147 -60 q 519 -175 463 -175 q 588 -171 564 -175 q 633 -157 613 -167 q 689 -118 669 -136 q 732 -64 708 -100 q 765 -3 756 -28 q 775 54 775 21 q 773 88 775 67 q 751 131 771 108 q 697 157 732 153 q 667 150 688 154 q 633 146 647 146 l 393 47 q 324 24 350 29 q 249 19 297 19 q 174 54 201 19 q 146 138 146 89 q 172 242 146 188 l 164 242 q 33 199 81 242 q -17 101 6 172 q -33 33 -24 78 l -49 31 q -19 113 -31 83 q 51 228 17 200 q 132 285 100 267 q 219 315 175 308 q 233 333 228 326 q 250 350 244 344 q 285 383 275 375 q 338 421 310 404 q 296 517 296 456 q 324 622 296 563 q 402 731 351 681 q 494 804 453 781 q 674 850 575 850 q 753 844 726 850 q 806 825 781 838 q 810 824 808 824 q 817 806 821 818 l 781 714 l 768 724 q 726 756 743 746 q 619 788 674 788 q 521 779 556 788 q 411 717 458 764 q 358 653 369 674 q 339 558 339 617 q 364 510 339 532 q 413 488 389 488 q 469 493 443 488 q 521 508 496 499 l 783 618 q 828 632 804 628 q 876 636 853 636 q 949 595 926 631 q 971 501 971 560 m 925 453 q 901 513 921 490 q 846 536 882 536 q 799 531 825 539 l 543 426 q 475 403 501 408 q 400 399 449 399 l 371 403 q 261 338 311 388 l 243 319 l 265 319 q 459 262 314 319 q 669 204 604 204 q 733 208 703 204 q 783 222 764 213 q 839 261 817 240 q 883 317 861 282 q 925 453 925 378 m 461 167 q 360 199 428 176 q 196 240 249 235 q 189 179 189 213 q 213 131 189 154 q 263 108 238 108 q 319 114 293 108 q 371 129 346 119 l 461 167 z "},"•":{"ha":433,"x_min":71,"x_max":346,"o":"m 346 371 q 306 274 346 314 q 208 233 265 233 q 111 274 151 233 q 71 371 71 314 q 111 468 71 428 q 208 508 151 508 q 306 468 265 508 q 346 371 346 428 z "},"¶":{"ha":789,"x_min":100,"x_max":921,"o":"m 921 1022 l 899 897 q 797 890 813 897 q 772 836 782 882 l 513 -253 q 455 -287 508 -272 q 350 -303 401 -303 q 288 -281 318 -300 q 201 -197 247 -256 l 178 -192 q 126 -165 157 -185 q 100 -147 117 -160 l 100 -132 q 117 -144 110 -140 q 172 -158 142 -158 l 150 -122 l 150 -108 q 160 -122 156 -117 q 186 -157 175 -144 q 229 -130 211 -153 q 253 -81 247 -107 l 388 403 q 199 593 199 403 q 213 701 199 635 q 331 893 240 831 q 525 949 410 949 l 835 949 q 900 985 872 949 q 921 1022 908 996 m 682 908 l 600 908 l 325 -183 q 306 -198 324 -193 q 258 -203 289 -203 q 228 -201 239 -203 q 272 -229 247 -217 q 317 -242 296 -242 q 344 -236 332 -242 q 403 -203 381 -222 q 431 -161 425 -185 l 682 908 z "},"ß":{"ha":742,"x_min":-229,"x_max":788,"o":"m 785 674 q 758 617 778 644 q 717 578 738 590 l 454 414 q 442 394 449 410 q 435 363 435 378 q 440 339 435 351 q 453 314 444 326 l 550 169 q 611 86 558 157 q 674 -49 674 1 q 671 -72 674 -56 q 574 -186 658 -132 q 401 -240 489 -240 l 336 -236 l 163 -71 q 176 -60 164 -62 q 189 -60 181 -60 l 207 -82 q 264 -125 235 -112 q 336 -137 293 -137 q 490 -86 422 -137 q 557 0 547 -43 q 560 29 560 19 q 550 88 560 58 q 521 147 540 117 l 396 331 q 344 403 346 400 q 322 464 318 443 q 346 504 328 488 q 388 532 351 508 l 622 674 q 654 694 646 688 q 680 732 675 713 q 685 768 685 751 q 624 872 685 838 q 541 902 592 892 q 456 913 490 913 q 308 881 360 913 q 254 819 278 861 l -75 -300 q -85 -347 -83 -328 q -87 -379 -86 -367 l -229 -317 q -211 -317 -218 -318 q -158 -267 -171 -308 l 175 896 q 223 948 185 928 q 282 968 261 968 l 368 968 q 510 955 450 968 q 629 899 571 942 q 738 807 704 843 q 788 699 788 751 q 785 674 788 690 z "},"®":{"ha":1039,"x_min":22,"x_max":981,"o":"m 981 451 q 864 126 981 258 q 510 -21 733 -21 q 144 135 281 -21 q 22 472 22 274 q 139 803 22 663 q 478 958 268 958 q 853 799 711 958 q 981 451 981 654 m 894 458 q 792 753 894 633 q 478 888 676 888 q 221 758 325 888 q 122 479 122 636 q 226 181 122 310 q 510 40 339 40 q 801 171 696 40 q 894 458 894 286 m 768 168 q 749 167 756 167 q 696 172 717 167 q 644 206 661 182 l 469 439 l 444 424 q 417 339 431 367 q 292 254 372 254 q 226 296 244 254 q 218 338 221 310 l 269 378 l 281 381 q 286 335 282 350 q 343 288 301 288 q 393 332 378 288 q 401 376 397 346 l 351 417 l 413 432 l 472 714 q 435 704 460 714 q 396 688 419 699 q 433 728 403 706 q 481 757 464 751 l 486 794 l 513 794 l 507 757 q 543 761 524 760 q 578 761 563 763 q 656 733 625 761 q 688 657 688 704 q 629 546 688 596 q 547 483 588 514 l 694 256 q 718 221 706 238 q 768 168 739 193 m 618 618 q 597 683 618 657 q 539 714 576 710 l 496 714 l 444 443 q 528 489 486 465 q 618 618 618 546 z "},"©":{"ha":1039,"x_min":22,"x_max":981,"o":"m 981 451 q 864 126 981 258 q 510 -21 733 -21 q 144 135 281 -21 q 22 472 22 274 q 139 803 22 663 q 478 958 268 958 q 853 799 711 958 q 981 451 981 654 m 894 458 q 792 753 894 633 q 478 888 676 888 q 221 758 325 888 q 122 479 122 636 q 226 181 122 310 q 510 40 339 40 q 801 171 696 40 q 894 458 894 286 m 761 707 l 681 650 l 703 649 l 735 653 q 717 636 726 643 q 696 627 708 629 q 658 617 683 625 q 615 608 632 608 q 521 665 533 608 q 422 583 454 618 q 322 349 322 475 q 377 245 322 282 q 525 208 432 208 q 594 219 564 208 q 638 239 626 235 l 651 239 q 574 194 589 201 q 421 167 518 167 q 278 213 331 167 q 235 296 235 250 q 308 499 235 399 q 446 635 360 569 q 521 685 511 685 q 555 722 531 708 q 594 736 579 736 l 624 736 l 707 761 q 731 765 721 767 q 761 750 761 765 l 761 707 m 707 710 q 691 729 707 722 q 653 736 675 736 q 622 722 635 736 q 608 688 608 707 q 625 664 608 675 q 660 653 642 653 q 697 681 688 667 q 707 710 707 696 z "},"™":{"ha":1361,"x_min":81,"x_max":1314,"o":"m 243 301 q 186 324 203 301 q 169 381 169 347 q 178 440 169 406 q 203 518 188 474 l 332 865 q 308 865 317 865 q 208 851 249 865 q 106 771 143 829 q 97 743 100 763 q 93 714 93 724 q 106 689 93 699 q 135 679 118 679 q 150 682 142 679 q 158 686 153 682 l 117 619 q 99 640 104 631 q 81 713 81 669 q 85 749 81 733 q 96 776 89 764 q 190 893 154 871 q 378 925 242 925 l 597 929 l 593 861 l 401 864 l 276 525 q 258 464 264 490 q 253 417 253 438 q 269 359 253 375 q 314 343 285 343 q 339 447 319 388 q 357 499 344 467 q 406 522 389 515 q 461 546 457 547 q 411 489 432 533 q 386 358 386 438 q 433 392 410 369 q 483 443 438 394 l 497 446 l 492 428 q 463 400 474 410 q 386 344 424 367 q 403 251 386 281 q 440 222 419 222 q 491 242 468 222 q 536 294 514 261 l 922 899 q 933 919 928 908 q 947 925 939 926 q 965 889 965 924 l 993 492 q 1006 461 993 461 q 1033 482 1021 461 q 1047 507 1040 494 l 1189 740 q 1213 771 1199 760 q 1244 782 1226 782 q 1285 756 1272 782 q 1297 651 1297 729 l 1314 354 l 1243 319 l 1231 581 q 1220 655 1231 632 q 1193 678 1210 678 q 1153 651 1168 678 l 946 315 l 933 315 l 901 736 q 897 758 900 746 q 881 769 894 769 q 850 753 865 769 q 822 715 840 743 l 551 285 q 476 200 521 235 q 393 165 432 165 q 381 167 385 165 q 329 196 342 175 q 311 310 311 225 q 276 304 294 307 q 243 301 258 301 z "},"´":{"ha":342,"x_min":79,"x_max":258,"o":"m 258 924 q 206 869 258 914 q 142 825 153 825 q 101 831 115 825 q 83 857 86 838 q 106 890 79 876 q 140 908 133 903 l 211 971 q 235 971 217 976 q 258 924 258 964 z "},"¨":{"ha":442,"x_min":61,"x_max":381,"o":"m 381 949 q 374 924 381 931 l 306 860 q 278 860 299 853 q 253 896 253 868 q 256 913 253 907 q 275 936 258 919 l 318 979 q 335 986 325 986 q 347 985 343 985 q 381 949 381 981 m 189 947 q 182 922 189 929 l 114 858 q 86 858 107 851 q 61 894 61 867 q 64 911 61 906 q 83 935 67 918 l 126 978 q 143 985 133 985 q 156 983 151 983 q 189 947 189 979 z "},"Æ":{"ha":1879,"x_min":-26,"x_max":1835,"o":"m 1833 917 q 1831 897 1835 910 q 1826 886 1831 893 l 1757 814 l 1746 814 q 1706 874 1732 854 q 1564 907 1660 907 q 1478 898 1525 907 q 1388 867 1431 889 q 1301 729 1301 822 q 1318 690 1301 708 q 1347 668 1326 681 l 1551 526 q 1586 500 1583 503 q 1601 458 1601 483 q 1582 415 1601 442 q 1500 325 1579 411 l 1336 142 q 1285 67 1303 104 q 1268 -6 1268 29 q 1315 -92 1268 -49 q 1460 -143 1372 -143 q 1569 -104 1506 -143 q 1624 -65 1590 -92 q 1635 -65 1632 -65 q 1647 -76 1647 -67 l 1439 -242 l 1372 -246 q 1213 -192 1286 -246 q 1139 -78 1139 -137 q 1146 -36 1139 -60 l 1139 278 l 801 285 q 761 224 778 247 q 596 -6 667 83 q 381 -217 485 -147 q 119 -300 257 -300 q 15 -262 53 -300 q -26 -135 -26 -219 q 54 88 -26 -10 q 225 193 129 178 l 240 189 q 242 181 242 183 q 242 163 244 168 q 160 50 192 114 q 119 -83 119 -29 q 148 -181 119 -143 q 229 -225 176 -219 q 428 -140 315 -232 q 600 40 510 -74 l 765 285 l 453 292 l 567 338 l 794 338 q 893 500 843 418 q 1086 804 1007 685 q 1213 968 1194 968 q 1231 963 1222 968 q 1238 957 1233 961 l 1246 794 q 1389 892 1304 853 q 1565 947 1474 932 q 1750 963 1657 963 q 1801 948 1769 963 q 1833 917 1833 933 m 1467 392 q 1460 408 1464 406 l 1257 554 l 1268 338 l 1274 274 l 1278 128 l 1311 164 l 1439 308 q 1461 340 1453 324 q 1469 372 1469 356 q 1467 392 1469 378 m 1133 338 l 1132 549 q 1129 625 1132 597 q 1118 697 1122 674 q 1094 714 1114 719 q 1018 615 1086 713 q 896 435 965 540 q 832 338 864 386 l 1133 338 z "},"Ø":{"ha":1388,"x_min":-103,"x_max":1449,"o":"m 1449 1022 l 1267 893 q 1339 694 1339 818 q 1211 367 1339 524 q 925 129 1107 238 q 582 -12 769 29 q 283 -43 444 -43 q 114 7 188 -43 l 39 -61 l -103 -61 l 60 57 q 25 124 38 88 q 13 207 13 161 q 110 471 13 336 q 354 709 192 583 q 688 900 517 835 q 1074 971 874 971 q 1214 935 1153 971 l 1319 1022 l 1449 1022 m 1092 839 q 996 874 1049 864 q 885 885 943 885 q 605 838 728 885 q 350 678 482 790 q 201 489 253 597 q 149 253 149 381 q 157 197 149 222 q 181 147 165 171 q 467 361 315 247 q 786 603 658 506 q 1092 839 978 749 m 1207 644 q 1190 733 1207 693 q 1142 803 1172 774 q 849 588 1003 701 q 526 343 676 460 q 224 100 351 207 q 333 42 269 61 q 457 24 397 24 q 689 52 576 24 q 879 131 801 81 q 1110 339 1032 232 q 1207 644 1207 474 z "},"±":{"ha":453,"x_min":36,"x_max":397,"o":"m 397 394 l 261 394 l 261 250 l 394 250 l 394 172 l 36 172 l 36 250 l 189 250 l 189 394 l 38 394 l 38 472 l 189 472 l 189 628 l 261 628 l 261 472 l 397 472 l 397 394 z "},"¥":{"ha":810,"x_min":-182,"x_max":825,"o":"m 825 686 q 813 639 825 661 q 779 596 808 631 l 554 321 l 700 321 l 700 258 l 503 258 l 446 188 l 699 188 l 699 125 l 394 125 l -58 -429 q -68 -443 -64 -436 q -75 -468 -76 -456 q -60 -490 -75 -482 q -26 -497 -46 -497 q 17 -483 -1 -494 l 468 -256 q 575 -185 538 -221 q 632 -67 632 -131 q 617 -15 632 -33 q 585 4 603 4 q 507 -18 544 4 q 492 -31 501 -21 l 476 -29 l 478 -18 l 679 117 l 690 110 l 754 0 q 771 -61 771 -28 q 699 -185 771 -124 q 586 -256 650 -226 l -58 -551 q -112 -569 -75 -558 q -158 -589 -150 -579 l -182 -593 l -182 -503 q -107 -451 -129 -476 q -74 -404 -87 -422 l 233 -29 q 242 1 242 -18 q 240 28 242 18 q 235 44 238 39 l 222 125 l 32 125 l 32 188 l 211 188 l 200 258 l 32 258 l 32 321 l 189 321 l 135 661 q 111 722 128 704 q 81 743 96 732 l 171 861 q 181 863 178 863 q 199 864 193 865 q 228 848 219 861 q 239 813 236 835 l 301 321 l 511 321 l 624 468 q 671 558 653 506 q 689 658 689 611 q 663 715 689 694 q 608 736 638 736 l 574 736 l 674 861 l 697 865 l 817 738 q 824 717 822 732 q 825 686 825 701 m 463 258 l 310 258 l 318 188 l 408 188 l 463 258 m 361 125 l 326 125 l 332 88 l 361 125 z "},"µ":{"ha":631,"x_min":-14,"x_max":572,"o":"m 572 54 l 476 -26 q 375 31 410 -26 q 342 122 357 61 l 258 31 q 210 -2 236 7 q 146 -11 183 -11 q 111 0 133 -11 q 93 -21 108 1 q 42 -89 54 -79 q 3 -69 31 -96 q -14 -53 -12 -54 q 1 -54 -7 -54 q 19 -44 13 -53 q 49 9 35 -26 q 61 50 64 44 q 18 192 33 101 q 8 272 14 221 l 142 308 q 150 196 144 233 q 229 82 169 82 q 369 183 292 82 q 435 285 394 217 q 469 167 451 225 q 572 54 503 88 z "},"ª":{"ha":388,"x_min":19,"x_max":365,"o":"m 365 828 l 307 769 q 271 822 304 779 q 256 842 265 829 l 244 843 l 131 769 q 101 756 119 761 q 64 751 83 751 q 28 769 40 751 q 19 788 24 775 l 193 950 q 232 967 208 967 q 267 957 258 967 l 365 828 m 231 861 q 219 894 231 882 q 192 907 208 907 q 131 878 157 907 q 108 836 110 854 q 117 814 107 824 q 143 804 128 804 q 197 825 164 804 q 231 861 231 846 z "},"º":{"ha":288,"x_min":17,"x_max":267,"o":"m 267 924 q 249 886 267 897 l 153 831 q 121 824 135 824 l 71 824 q 35 838 53 824 q 17 874 17 853 q 31 915 17 906 l 106 968 l 82 979 l 149 1010 l 228 978 q 255 955 243 971 q 267 924 267 939 m 207 888 q 199 911 207 900 q 183 926 192 922 l 117 961 l 99 947 q 85 910 85 936 q 112 872 85 889 q 167 854 139 854 q 189 860 179 854 q 207 888 207 869 z "},"æ":{"ha":826,"x_min":8,"x_max":710,"o":"m 710 329 q 704 299 710 304 q 639 232 661 254 q 561 161 569 163 l 558 178 l 611 236 q 619 267 619 246 q 592 294 619 289 q 543 299 564 299 q 532 299 533 299 q 529 299 531 299 q 521 278 524 286 q 513 236 513 253 q 515 206 513 215 q 524 178 517 196 l 581 101 q 631 88 606 88 q 663 90 653 88 q 679 96 672 93 l 679 89 l 576 8 q 550 6 565 7 q 510 6 535 6 l 497 8 l 489 0 l 481 15 q 419 101 436 46 l 403 122 l 383 124 l 194 0 q 142 -22 171 -15 q 83 -29 113 -29 q 22 0 43 -29 q 8 31 15 10 l 297 303 q 328 323 311 315 q 364 331 344 331 q 400 327 388 331 q 421 313 413 324 l 464 256 l 579 360 q 606 363 585 363 q 676 354 643 363 q 710 329 710 346 m 360 153 q 347 200 360 179 q 296 229 329 229 q 193 181 238 229 q 157 113 157 140 q 174 76 157 93 q 215 58 192 58 q 306 93 251 58 q 360 153 360 128 z "},"ø":{"ha":476,"x_min":-75,"x_max":508,"o":"m 508 304 l 399 231 q 426 167 426 199 q 420 130 426 146 q 397 104 414 114 l 236 11 q 183 0 213 0 l 101 0 q 72 6 85 0 l 0 -50 l -75 -50 l 39 25 q 10 82 10 51 q 16 124 10 104 q 33 151 22 143 l 158 240 l 119 258 l 229 308 l 363 256 l 425 304 l 508 304 m 265 182 l 176 229 l 146 206 q 128 178 133 196 q 124 142 124 161 q 128 120 124 131 q 144 99 133 110 l 265 182 m 326 106 q 318 137 326 121 q 299 163 310 153 l 174 76 q 260 50 219 50 q 308 66 289 50 q 326 106 326 82 z "},"¿":{"ha":504,"x_min":28,"x_max":468,"o":"m 418 826 q 412 806 418 815 q 394 785 406 796 l 351 742 q 332 735 344 735 q 289 776 289 735 q 296 797 289 790 l 364 861 q 376 865 371 868 q 404 853 390 865 q 418 826 418 842 m 468 1 q 414 -51 436 -35 q 265 -106 342 -106 q 108 -54 182 -106 q 28 78 28 1 q 129 267 28 200 q 281 349 204 307 l 311 631 l 318 642 l 371 688 l 388 683 l 361 411 q 214 264 360 393 q 149 139 149 206 q 204 6 149 54 q 313 -36 251 -36 q 388 -24 347 -36 q 456 3 429 -12 l 468 1 z "},"¡":{"ha":235,"x_min":17,"x_max":201,"o":"m 201 757 q 195 736 201 746 q 178 715 189 726 l 135 672 q 117 665 128 665 q 83 676 93 665 q 72 707 72 686 q 79 728 72 721 l 147 792 q 160 796 154 799 q 188 784 174 796 q 201 757 201 772 m 169 614 l 161 528 l 114 -37 l 129 -79 l 19 -121 l 17 -85 l 82 543 q 107 604 86 585 q 146 618 122 618 q 167 617 161 618 q 169 614 168 617 z "},"¬":{"ha":2311,"x_min":56,"x_max":2264,"o":"m 1992 550 q 1929 344 1992 489 q 1828 140 1879 229 q 1771 49 1788 69 q 1681 -8 1726 -8 q 1607 15 1643 -8 q 1565 79 1565 43 q 1581 128 1565 103 q 1615 168 1592 146 q 1654 124 1646 132 q 1707 103 1678 103 q 1850 239 1786 103 q 1904 446 1904 354 q 1872 517 1904 499 q 1794 529 1850 529 q 1702 476 1710 529 q 1683 417 1694 424 l 1671 450 q 1672 472 1672 457 q 1672 496 1672 483 q 1671 522 1671 508 q 1689 593 1671 571 q 1788 625 1715 625 q 1914 617 1875 625 q 1992 550 1992 600 m 2264 243 q 2182 38 2264 104 q 1965 -25 2106 -25 q 1885 -15 1922 -25 q 1826 31 1826 0 q 1838 60 1826 50 q 1865 69 1849 69 q 1925 38 1910 69 q 1985 -4 1940 6 q 2208 233 2208 -4 q 2210 261 2210 247 q 2211 294 2211 275 q 2151 539 2211 436 q 1913 693 2074 672 q 1743 714 1863 700 q 1564 728 1624 728 q 1417 714 1506 728 q 1289 693 1413 714 q 856 449 1089 660 q 603 69 624 239 q 647 -60 647 7 q 646 -90 647 -85 q 626 -111 640 -111 q 584 -64 600 -111 q 568 19 568 -17 l 568 31 q 485 101 504 82 q 424 194 428 157 q 419 261 419 232 q 419 278 419 269 q 422 292 422 288 q 269 174 344 224 q 100 99 157 99 q 69 109 82 99 q 56 138 56 119 q 80 261 56 188 q 126 365 104 335 l 189 451 q 210 481 206 469 q 143 500 164 481 q 115 565 122 519 q 142 564 124 564 q 254 596 197 564 q 349 669 301 622 q 358 674 353 671 q 367 643 367 663 q 318 529 367 567 q 239 478 278 503 q 178 389 199 419 q 139 288 139 332 q 153 210 139 254 q 189 167 167 167 q 314 231 221 167 q 438 318 375 274 q 479 419 464 383 q 531 515 507 486 q 556 544 554 543 q 590 560 572 560 q 608 553 597 560 q 618 533 618 547 q 581 456 618 496 q 511 400 554 428 q 492 336 504 388 q 479 268 479 285 q 506 209 479 251 q 579 108 532 167 q 836 489 617 292 q 1222 714 1046 679 q 1425 751 1364 742 q 1629 767 1528 767 q 1963 735 1769 767 q 2161 619 2085 715 q 2264 243 2264 490 m 1499 21 q 1456 -4 1492 -4 q 1432 -1 1440 -4 q 1394 21 1407 6 q 1386 53 1381 36 q 1426 76 1393 76 q 1458 71 1439 76 q 1490 51 1476 65 q 1499 21 1504 38 m 1478 276 q 1435 160 1478 219 q 1347 72 1401 114 q 1042 -31 1211 -31 q 894 0 954 -31 q 818 118 818 39 q 853 208 818 168 q 942 261 889 247 l 944 251 q 886 222 901 236 q 860 163 860 200 q 954 56 860 88 q 1115 33 1019 33 q 1249 56 1182 33 q 1371 118 1317 78 q 1410 160 1396 138 q 1425 208 1425 182 q 1385 263 1425 249 q 1311 271 1361 271 q 1243 267 1288 271 q 1178 263 1199 263 q 1060 292 1106 263 q 1004 397 1004 326 q 1099 557 1004 496 q 1289 611 1183 611 q 1344 607 1325 611 q 1379 585 1363 603 q 1394 589 1388 589 q 1413 576 1406 589 q 1439 532 1436 535 q 1444 524 1442 532 q 1417 486 1440 510 q 1388 452 1393 463 q 1378 442 1383 442 q 1359 453 1372 442 q 1340 468 1346 465 q 1308 488 1308 472 q 1326 523 1308 500 q 1343 560 1343 546 q 1326 588 1343 581 q 1285 594 1310 594 q 1142 558 1207 594 q 1061 440 1061 514 q 1101 382 1061 399 q 1178 369 1131 369 l 1292 374 q 1413 363 1378 374 q 1478 276 1478 342 m 815 14 q 768 -12 808 -12 q 739 -8 757 -12 q 707 13 721 -3 q 697 49 693 29 q 743 74 704 74 q 767 71 750 74 q 806 48 792 64 q 815 14 821 32 z "},"ƒ":{"ha":574,"x_min":-260,"x_max":657,"o":"m 653 907 l 604 824 q 586 865 594 851 q 531 913 560 908 q 483 918 501 918 q 451 911 464 918 q 378 824 410 890 q 331 686 354 775 l 232 317 l 450 317 l 400 238 l 207 236 l 99 -182 q 29 -325 75 -275 q -121 -387 -28 -387 q -221 -346 -172 -387 q -260 -303 -236 -332 l -218 -215 q -199 -289 -208 -265 q -117 -362 -169 -362 q -36 -299 -62 -362 q -14 -228 -28 -279 l 113 242 l 25 242 l 42 281 l 142 325 l 228 671 q 313 840 254 778 q 433 926 350 881 q 487 949 458 940 q 546 957 515 957 q 571 957 558 957 q 601 949 583 953 q 638 934 618 946 q 653 907 657 922 z "},"«":{"ha":708,"x_min":13,"x_max":626,"o":"m 626 224 l 288 390 l 626 544 l 626 471 l 436 390 l 626 297 l 626 224 m 351 224 l 13 390 l 351 544 l 351 471 l 161 390 l 351 297 l 351 224 z "},"»":{"ha":708,"x_min":57,"x_max":671,"o":"m 671 390 l 332 224 l 332 297 l 522 390 l 332 471 l 332 544 l 671 390 m 396 390 l 57 224 l 57 297 l 247 390 l 57 471 l 57 544 l 396 390 z "},"…":{"ha":854,"x_min":57,"x_max":792,"o":"m 238 86 q 185 32 238 76 q 121 -12 132 -12 q 63 19 71 -12 q 78 48 57 36 q 119 71 99 60 l 190 133 q 214 133 196 139 q 238 86 238 126 m 508 90 q 456 36 508 81 q 392 -8 403 -8 q 333 24 342 -8 q 349 52 328 40 q 390 75 369 64 l 461 138 q 485 138 467 143 q 508 90 508 131 m 792 99 q 739 44 792 89 q 675 0 686 0 q 617 32 625 0 q 632 60 611 49 q 674 83 653 72 l 744 146 q 768 146 750 151 q 792 99 792 139 z "}," ":{"ha":1038,"x_min":0,"x_max":0,"o":""},"À":{"ha":1439,"x_min":-26,"x_max":1390,"o":"m 1390 272 l 1274 274 l 1279 24 l 1107 -53 l 1140 33 l 1139 278 l 801 285 l 596 -6 q 385 -219 494 -147 q 119 -300 261 -300 q 15 -262 53 -300 q -26 -135 -26 -219 q 42 78 -26 -6 q 171 169 90 138 q 240 189 219 189 q 242 181 242 183 q 242 163 244 168 q 160 50 192 114 q 119 -83 119 -29 q 148 -181 119 -143 q 229 -225 176 -219 q 436 -136 317 -232 q 600 40 535 -57 l 765 285 l 453 292 l 567 338 l 794 338 l 1164 915 q 1186 950 1175 932 q 1213 968 1200 968 q 1238 957 1238 968 l 1268 338 l 1390 338 l 1390 272 m 1133 338 q 1133 353 1133 343 q 1133 375 1133 364 q 1133 404 1133 393 q 1131 572 1133 511 q 1118 703 1129 632 q 1094 714 1114 719 q 1073 699 1081 710 q 1060 679 1065 688 l 832 338 l 1133 338 m 1250 1082 q 1231 1058 1247 1065 q 1192 1050 1215 1050 q 1129 1094 1182 1050 q 1075 1150 1076 1139 q 1078 1178 1072 1165 q 1099 1196 1085 1192 q 1122 1196 1117 1201 l 1193 1133 q 1232 1111 1194 1132 q 1250 1082 1253 1099 z "},"Ã":{"ha":1439,"x_min":-26,"x_max":1431,"o":"m 1390 272 l 1274 274 l 1279 24 l 1107 -53 l 1140 33 l 1139 278 l 801 285 l 596 -6 q 385 -219 494 -147 q 119 -300 261 -300 q 15 -262 53 -300 q -26 -135 -26 -219 q 42 78 -26 -6 q 171 169 90 138 q 240 189 219 189 q 242 181 242 183 q 242 163 244 168 q 160 50 192 114 q 119 -83 119 -29 q 148 -181 119 -143 q 229 -225 176 -219 q 436 -136 317 -232 q 600 40 535 -57 l 765 285 l 453 292 l 567 338 l 794 338 l 1164 915 q 1186 950 1175 932 q 1213 968 1200 968 q 1238 957 1238 968 l 1268 338 l 1390 338 l 1390 272 m 1133 338 q 1133 353 1133 343 q 1133 375 1133 364 q 1133 404 1133 393 q 1131 572 1133 511 q 1118 703 1129 632 q 1094 714 1114 719 q 1073 699 1081 710 q 1060 679 1065 688 l 832 338 l 1133 338 m 1431 1172 q 1408 1100 1421 1124 q 1296 1026 1371 1026 q 1188 1065 1265 1026 q 1119 1083 1151 1083 q 1038 1056 1079 1083 q 1004 1026 1024 1047 l 996 1036 q 1015 1104 1004 1082 q 1136 1172 1053 1172 q 1231 1149 1189 1172 q 1308 1125 1272 1125 q 1390 1151 1351 1125 q 1421 1178 1403 1160 l 1431 1172 z "},"Õ":{"ha":1388,"x_min":13,"x_max":1339,"o":"m 1339 694 q 1211 367 1339 524 q 925 129 1107 238 q 582 -12 769 29 q 283 -43 444 -43 q 93 21 168 -43 q 13 207 13 90 q 110 471 13 336 q 354 709 192 583 q 688 900 517 835 q 1074 971 874 971 q 1265 897 1190 971 q 1339 694 1339 822 m 1207 644 q 1100 833 1207 769 q 885 885 1014 885 q 605 838 728 885 q 350 678 482 790 q 201 489 253 597 q 149 253 149 381 q 257 75 149 139 q 457 24 344 24 q 689 52 576 24 q 879 131 801 81 q 1110 339 1032 232 q 1207 644 1207 474 m 1214 1183 q 1192 1111 1204 1135 q 1079 1038 1154 1038 q 971 1076 1049 1038 q 903 1094 935 1094 q 821 1067 863 1094 q 788 1038 807 1058 l 779 1047 q 799 1115 788 1093 q 919 1183 836 1183 q 1014 1160 972 1183 q 1092 1136 1056 1136 q 1174 1163 1135 1136 q 1204 1189 1186 1171 l 1214 1183 z "},"Œ":{"ha":1554,"x_min":13,"x_max":1521,"o":"m 1519 917 q 1517 897 1521 910 q 1513 886 1517 893 l 1432 814 q 1392 874 1418 854 q 1250 907 1346 907 q 1164 898 1211 907 q 1074 867 1117 889 q 988 729 988 822 q 1004 690 988 708 q 1033 668 1013 681 l 1238 526 q 1272 500 1269 503 q 1288 458 1288 483 q 1268 415 1288 442 q 1186 325 1265 411 l 1022 142 q 972 67 989 104 q 954 -6 954 29 q 1001 -92 954 -49 q 1146 -143 1058 -143 q 1220 -132 1190 -143 q 1286 -87 1250 -121 l 1310 -65 q 1321 -65 1318 -65 q 1333 -76 1333 -67 l 1125 -242 l 1058 -246 q 899 -192 972 -246 q 825 -78 825 -137 q 910 72 825 -18 q 997 164 953 118 l 1026 196 l 925 129 q 582 -12 769 29 q 283 -43 444 -43 q 93 21 168 -43 q 13 207 13 90 q 110 471 13 336 q 354 709 192 583 q 688 900 517 835 q 1074 971 874 971 q 1208 939 1149 971 q 1321 956 1260 950 q 1436 963 1382 963 q 1488 948 1456 963 q 1519 917 1519 933 m 1149 406 l 1146 408 l 918 572 q 886 612 901 583 q 871 668 871 640 q 915 776 871 724 q 1026 867 954 824 q 958 881 996 876 q 885 885 919 885 q 605 838 728 885 q 350 678 482 790 q 201 489 253 597 q 149 253 149 381 q 257 75 149 139 q 457 24 344 24 q 689 52 576 24 q 879 131 801 81 q 1033 253 969 190 q 1149 406 1107 325 z "},"œ":{"ha":700,"x_min":10,"x_max":621,"o":"m 621 322 q 615 292 621 297 q 550 225 572 247 q 472 154 481 156 l 469 171 l 522 229 q 531 260 531 239 q 503 287 531 282 q 454 292 475 292 q 443 292 444 292 q 440 292 442 292 q 432 271 435 279 q 424 229 424 246 q 453 136 424 182 q 542 81 488 81 q 574 83 564 81 q 590 89 583 86 l 590 82 l 488 1 q 461 -1 476 0 q 421 -1 446 -1 q 376 19 399 -1 q 339 71 354 40 l 236 11 q 183 0 213 0 l 101 0 q 42 22 69 0 q 10 82 10 49 q 16 124 10 104 q 33 151 22 143 l 158 240 l 119 258 l 229 308 l 363 256 l 375 249 l 490 353 q 517 356 496 356 q 588 347 554 356 q 621 322 621 339 m 326 106 q 314 145 326 126 q 289 171 301 164 l 176 229 l 146 206 q 128 178 133 196 q 124 142 124 161 q 168 78 124 107 q 260 50 213 50 q 308 66 289 50 q 326 106 326 82 z "},"–":{"ha":789,"x_min":18,"x_max":744,"o":"m 744 256 l 18 256 l 18 328 l 744 328 l 744 256 z "},"—":{"ha":1222,"x_min":19,"x_max":1185,"o":"m 1185 256 l 19 256 l 19 328 l 1185 328 l 1185 256 z "},"“":{"ha":449,"x_min":47,"x_max":425,"o":"m 425 831 q 414 824 418 825 q 382 815 397 815 q 300 843 338 815 q 257 925 257 875 q 267 949 257 935 q 278 961 269 953 l 307 961 q 347 910 326 935 q 425 846 386 867 l 425 831 m 215 832 q 204 825 208 826 q 172 817 188 817 q 90 844 128 817 q 47 926 47 876 q 57 950 47 936 q 68 963 60 954 l 97 963 q 138 911 117 936 q 215 847 176 868 l 215 832 z "},"”":{"ha":450,"x_min":46,"x_max":419,"o":"m 419 926 q 378 847 419 878 q 294 817 338 817 q 264 824 278 817 q 251 832 260 825 l 251 847 q 329 911 290 868 q 369 963 364 956 l 399 963 q 408 950 406 954 q 419 926 419 935 m 214 926 q 173 847 214 878 q 89 817 132 817 q 58 824 72 817 q 46 832 54 825 l 46 847 q 124 911 85 868 q 164 963 158 956 l 193 963 q 203 950 200 954 q 214 926 214 935 z "},"‘":{"ha":235,"x_min":47,"x_max":215,"o":"m 215 832 q 204 825 208 826 q 172 817 188 817 q 90 844 128 817 q 47 926 47 876 q 57 950 47 936 q 68 963 60 954 l 97 963 q 138 911 117 936 q 215 847 176 868 l 215 832 z "},"’":{"ha":235,"x_min":46,"x_max":214,"o":"m 214 926 q 173 847 214 878 q 89 817 132 817 q 58 824 72 817 q 46 832 54 825 l 46 847 q 124 911 85 868 q 164 963 158 956 l 193 963 q 203 950 200 954 q 214 926 214 935 z "},"÷":{"ha":382,"x_min":29,"x_max":360,"o":"m 281 456 q 274 431 281 438 l 206 367 q 194 363 200 361 q 165 374 179 363 q 151 401 151 385 q 158 422 151 413 q 175 443 164 432 l 218 486 q 236 493 225 493 q 268 483 256 493 q 281 456 281 474 m 360 256 l 29 256 l 29 328 l 360 328 l 360 256 m 260 193 q 253 168 260 175 l 185 104 q 174 100 179 99 q 144 111 158 100 q 131 139 131 122 q 137 160 131 150 q 154 181 143 169 l 197 224 q 215 231 204 231 q 247 221 235 231 q 260 193 260 211 z "},"ÿ":{"ha":533,"x_min":-104,"x_max":481,"o":"m 481 210 q 474 168 481 189 q 443 108 468 147 l -64 -674 l -90 -714 l -104 -718 q -103 -674 -104 -697 q -93 -637 -103 -650 l 357 33 q 372 86 372 57 q 351 160 372 125 q 299 194 329 194 q 274 188 283 194 q 251 167 264 182 l 118 0 l 104 0 q 96 88 99 50 q 1 251 82 221 l 90 303 l 126 307 q 194 225 172 307 q 207 142 201 199 l 319 300 q 335 303 329 303 q 364 307 358 307 q 440 288 410 307 q 481 210 481 263 m 432 472 q 425 447 432 454 l 357 383 q 329 383 350 376 q 304 419 304 392 q 307 436 304 431 q 326 460 310 443 l 369 503 q 386 510 376 510 q 399 508 394 508 q 432 472 432 504 m 240 471 q 233 446 240 453 l 165 382 q 138 382 158 375 q 113 418 113 390 q 115 435 113 429 q 135 458 118 442 l 178 501 q 194 508 185 508 q 207 507 203 507 q 240 471 240 503 z "},"Ÿ":{"ha":900,"x_min":-279,"x_max":840,"o":"m 840 763 q 818 699 840 731 q 789 663 813 692 l -142 -476 q -161 -521 -161 -501 q -146 -545 -161 -537 q -107 -553 -131 -553 q -58 -537 -86 -553 l 443 -285 q 561 -204 517 -247 q 625 -74 625 -143 q 608 -17 625 -39 q 572 4 592 4 q 499 -14 535 4 q 469 -33 488 -19 l 453 -32 l 454 -19 l 678 129 l 690 122 l 761 0 q 779 -68 779 -31 q 700 -207 779 -139 q 574 -285 649 -250 l -142 -612 q -206 -632 -156 -618 q -253 -654 -242 -642 l -279 -660 l -279 -558 q -196 -501 -221 -529 q -158 -449 -175 -468 l 182 -32 q 190 3 190 -22 q 188 33 190 22 q 183 50 186 44 l 72 735 q 36 811 63 793 q 13 825 24 818 l 113 957 q 127 958 117 957 q 143 960 138 960 q 178 940 167 957 q 189 903 185 929 l 292 97 l 615 519 q 668 620 647 561 q 689 732 689 679 q 660 794 689 771 q 599 818 631 818 l 560 818 l 671 957 l 697 961 l 831 819 q 839 798 838 813 q 840 763 840 783 m 611 1107 q 604 1082 611 1089 l 536 1018 q 508 1018 529 1011 q 483 1054 483 1026 q 486 1071 483 1065 q 506 1094 489 1078 l 549 1138 q 565 1144 556 1144 q 578 1143 574 1143 q 611 1107 611 1139 m 419 1106 q 413 1081 419 1088 l 344 1017 q 317 1017 338 1010 q 292 1053 292 1025 q 294 1069 292 1064 q 314 1093 297 1076 l 357 1136 q 374 1143 364 1143 q 386 1142 382 1142 q 419 1106 419 1138 z "},"∕":{"ha":461,"x_min":-206,"x_max":675,"o":"m 675 1024 l -125 -53 l -206 -53 l 601 1024 l 675 1024 z "},"¤":{"ha":867,"x_min":-67,"x_max":888,"o":"m 888 772 q 800 715 888 756 q 703 650 746 690 q 741 568 729 608 q 753 483 753 528 q 737 385 753 433 q 692 292 721 338 q 700 286 696 290 q 703 282 701 285 q 679 251 703 274 q 619 206 656 229 q 721 136 649 176 q 742 111 742 125 q 715 81 742 92 q 651 71 688 71 q 564 175 624 71 q 469 146 519 156 q 378 136 419 136 q 140 247 235 136 q 75 151 133 240 q -4 86 32 86 q -41 106 -15 86 q -67 136 -67 126 q 7 224 -67 164 q 110 293 71 275 q 83 369 92 329 q 75 447 75 408 q 203 701 75 594 q 139 811 139 785 q 165 864 139 836 q 204 892 192 892 q 230 837 225 892 q 256 736 235 782 q 340 771 297 758 q 428 783 383 783 q 667 693 568 783 q 746 775 683 722 q 847 836 817 836 q 874 815 861 836 q 888 772 888 793 m 653 481 q 593 613 653 550 q 433 683 526 683 q 370 674 403 683 q 307 647 338 664 q 319 622 310 643 q 325 611 321 619 q 317 599 325 606 q 304 593 310 593 q 292 597 297 593 q 269 622 288 601 q 181 433 181 544 q 236 292 181 347 q 378 236 292 236 q 446 244 411 236 q 513 267 481 251 q 500 301 500 292 q 507 314 500 307 q 521 321 514 321 q 535 313 528 321 q 553 290 539 307 q 610 351 581 308 q 653 481 653 414 z "},"‹":{"ha":414,"x_min":13,"x_max":351,"o":"m 351 224 l 13 390 l 351 544 l 351 471 l 161 390 l 351 297 l 351 224 z "},"›":{"ha":399,"x_min":1,"x_max":339,"o":"m 339 390 l 1 226 l 1 297 l 189 390 l 1 471 l 1 546 l 339 390 z "},"":{"ha":574,"x_min":13,"x_max":513,"o":"m 513 963 l 479 872 q 454 910 465 897 q 382 947 421 947 q 339 945 351 947 q 313 932 326 943 q 253 835 274 903 q 233 689 233 768 l 200 308 l 413 308 l 422 268 q 449 149 422 196 q 510 82 479 115 q 500 67 510 74 l 431 13 q 422 6 426 8 q 404 4 418 4 q 325 86 350 4 q 307 225 307 146 l 189 225 l 138 -367 q 90 -603 125 -518 q 24 -689 69 -656 l 13 -689 l 93 225 l 13 225 l 19 240 l 99 313 l 135 657 q 190 838 146 768 q 293 943 221 886 q 356 979 324 967 q 442 996 397 996 q 492 988 472 996 q 513 963 513 981 z "},"":{"ha":574,"x_min":13,"x_max":606,"o":"m 606 951 l 513 60 q 481 29 492 39 q 438 0 447 -1 l 424 0 q 417 21 418 4 q 415 58 415 38 q 415 79 415 75 q 415 82 415 81 l 488 739 l 465 894 q 433 929 450 917 q 382 947 408 947 q 339 945 351 947 q 313 932 326 943 q 253 835 274 903 q 233 689 233 768 l 200 308 l 379 308 l 340 225 l 189 225 l 138 -367 q 90 -603 125 -518 q 24 -689 69 -656 l 13 -689 l 93 225 l 13 225 l 19 240 l 99 313 l 135 657 q 190 838 146 768 q 293 943 221 886 q 356 979 324 967 q 442 996 397 996 q 492 988 472 996 q 513 963 513 981 l 606 951 z "},"‡":{"ha":767,"x_min":3,"x_max":724,"o":"m 724 235 q 681 218 718 225 q 663 215 675 218 l 382 210 l 344 -107 q 313 -137 324 -128 q 269 -167 279 -168 l 256 -167 q 249 -146 250 -162 q 247 -108 247 -129 q 247 -87 247 -92 q 247 -85 247 -86 q 258 1 254 -33 q 285 207 276 140 l 185 206 q 90 183 121 206 q 72 160 81 176 l 6 278 l 3 296 l 297 304 q 301 395 299 317 q 307 557 304 474 l 181 554 q 89 533 118 554 q 71 511 79 526 l 8 618 l 6 635 l 317 647 l 319 669 q 322 703 322 686 q 322 728 322 719 q 304 835 322 794 q 294 851 301 842 l 419 910 l 438 910 l 413 650 l 644 660 q 672 635 664 643 q 701 599 700 607 l 703 586 q 663 569 699 576 q 644 567 657 569 l 403 560 l 393 307 l 663 315 q 690 288 682 297 q 721 249 719 257 l 724 235 z "},"·":{"ha":244,"x_min":58,"x_max":181,"o":"m 181 458 q 164 414 181 433 q 122 394 147 394 q 78 411 97 394 q 58 453 58 428 q 75 497 58 478 q 117 517 92 517 q 161 500 142 517 q 181 458 181 483 z "},"‚":{"ha":235,"x_min":42,"x_max":215,"o":"m 215 40 q 169 -40 215 -8 q 89 -67 132 -67 q 58 -61 74 -67 q 42 -43 42 -56 q 72 -18 42 -37 q 114 17 101 1 l 164 79 l 193 79 q 211 64 207 79 q 215 40 215 49 z "},"„":{"ha":458,"x_min":38,"x_max":411,"o":"m 411 53 q 365 -28 411 4 q 285 -54 328 -54 q 253 -49 269 -54 q 238 -31 238 -43 q 267 -6 238 -25 q 310 29 297 14 l 360 92 l 389 92 q 407 76 403 92 q 411 53 411 61 m 211 49 q 165 -32 211 0 q 85 -58 128 -58 q 53 -53 69 -58 q 38 -35 38 -47 q 67 -10 38 -29 q 110 25 97 10 l 160 88 l 189 88 q 207 72 203 88 q 211 49 211 57 z "},"‰":{"ha":1326,"x_min":1,"x_max":1249,"o":"m 1249 313 q 1233 249 1249 281 q 1218 224 1229 239 l 1107 111 q 1081 90 1092 97 q 990 69 1043 69 q 910 94 940 69 q 874 188 874 124 q 917 281 874 240 l 1013 372 q 1053 396 1038 389 q 1133 419 1100 419 q 1226 390 1200 419 q 1249 313 1249 365 m 832 313 q 817 249 832 281 q 801 224 813 239 l 690 111 q 664 90 675 97 q 574 69 626 69 q 493 94 524 69 q 457 188 457 124 q 500 281 457 240 l 596 372 q 636 396 621 389 q 717 419 683 419 q 810 390 783 419 q 832 313 832 365 m 733 796 l 161 -28 l 25 -28 l 603 714 q 506 665 569 685 q 388 644 442 644 q 364 646 371 644 q 371 613 364 644 q 374 585 374 600 q 364 540 374 563 q 328 489 354 517 l 251 408 q 210 381 226 389 q 115 351 157 351 q 36 375 65 351 q 1 454 1 403 q 19 532 1 500 q 46 565 28 547 l 125 639 q 168 667 151 658 q 271 696 224 696 q 317 689 292 696 q 396 672 378 672 q 551 710 478 672 q 671 796 607 738 l 733 796 m 1169 224 q 1181 274 1181 235 q 1164 331 1181 310 q 1094 360 1142 360 q 1063 355 1079 357 q 1042 349 1047 353 l 956 275 q 946 253 949 268 q 943 221 943 239 q 967 153 943 174 q 1035 132 990 132 q 1079 140 1061 132 q 1088 146 1082 142 l 1169 224 m 753 224 q 764 274 764 235 q 747 331 764 310 q 678 360 725 360 q 647 355 663 357 q 625 349 631 353 l 539 275 q 529 253 532 268 q 526 221 526 239 q 550 153 526 174 q 618 132 574 132 q 663 140 644 132 q 671 146 665 142 l 753 224 m 303 553 q 288 610 303 590 q 211 639 265 639 q 179 637 192 639 q 158 628 167 635 l 76 551 q 74 542 74 546 q 67 494 67 515 q 81 440 67 460 q 144 414 100 414 q 236 440 190 414 q 303 553 303 479 z "},"Â":{"ha":1439,"x_min":-26,"x_max":1390,"o":"m 1390 272 l 1274 274 l 1279 24 l 1107 -53 l 1140 33 l 1139 278 l 801 285 l 596 -6 q 385 -219 494 -147 q 119 -300 261 -300 q 15 -262 53 -300 q -26 -135 -26 -219 q 42 78 -26 -6 q 171 169 90 138 q 240 189 219 189 q 242 181 242 183 q 242 163 244 168 q 160 50 192 114 q 119 -83 119 -29 q 148 -181 119 -143 q 229 -225 176 -219 q 436 -136 317 -232 q 600 40 535 -57 l 765 285 l 453 292 l 567 338 l 794 338 l 1164 915 q 1186 950 1175 932 q 1213 968 1200 968 q 1238 957 1238 968 l 1268 338 l 1390 338 l 1390 272 m 1133 338 q 1133 353 1133 343 q 1133 375 1133 364 q 1133 404 1133 393 q 1131 572 1133 511 q 1118 703 1129 632 q 1094 714 1114 719 q 1073 699 1081 710 q 1060 679 1065 688 l 832 338 l 1133 338 m 1375 1010 l 1294 1011 q 1269 1031 1278 1025 q 1229 1051 1240 1051 l 1217 1051 q 1176 1031 1199 1051 q 1158 1010 1169 1024 l 1076 1010 l 1156 1097 q 1183 1107 1161 1103 q 1226 1111 1206 1111 q 1296 1097 1283 1111 l 1375 1010 z "},"Ê":{"ha":742,"x_min":-8,"x_max":688,"o":"m 686 922 q 683 903 688 915 q 679 892 683 899 l 610 819 l 599 819 q 558 879 585 860 q 417 913 513 913 q 331 903 378 913 q 240 872 283 894 q 154 735 154 828 q 171 696 154 714 q 200 674 179 686 l 404 532 q 439 506 436 508 q 454 464 454 489 q 435 421 454 447 q 353 331 432 417 l 189 147 q 138 72 156 110 q 121 0 121 35 q 168 -86 121 -43 q 313 -137 225 -137 q 387 -126 357 -137 q 453 -82 417 -115 l 476 -60 q 488 -60 485 -60 q 500 -71 500 -61 l 292 -236 l 225 -240 q 65 -186 139 -240 q -8 -72 -8 -132 q 76 78 -8 -12 q 164 169 119 124 l 292 314 q 314 345 306 329 q 322 378 322 361 q 319 397 322 383 q 313 414 317 411 l 85 578 q 53 617 68 589 q 38 674 38 646 q 97 799 38 736 q 240 899 150 854 q 418 953 326 938 q 603 968 510 968 q 654 953 622 968 q 686 922 686 939 m 626 1007 l 546 1008 q 521 1028 529 1022 q 481 1049 492 1049 l 468 1049 q 428 1028 450 1049 q 410 1007 421 1021 l 328 1007 l 407 1094 q 435 1104 413 1100 q 478 1108 457 1108 q 547 1094 535 1108 l 626 1007 z "},"Á":{"ha":1439,"x_min":-26,"x_max":1411,"o":"m 1390 272 l 1274 274 l 1279 24 l 1107 -53 l 1140 33 l 1139 278 l 801 285 l 596 -6 q 385 -219 494 -147 q 119 -300 261 -300 q 15 -262 53 -300 q -26 -135 -26 -219 q 42 78 -26 -6 q 171 169 90 138 q 240 189 219 189 q 242 181 242 183 q 242 163 244 168 q 160 50 192 114 q 119 -83 119 -29 q 148 -181 119 -143 q 229 -225 176 -219 q 436 -136 317 -232 q 600 40 535 -57 l 765 285 l 453 292 l 567 338 l 794 338 l 1164 915 q 1186 950 1175 932 q 1213 968 1200 968 q 1238 957 1238 968 l 1268 338 l 1390 338 l 1390 272 m 1133 338 q 1133 353 1133 343 q 1133 375 1133 364 q 1133 404 1133 393 q 1131 572 1133 511 q 1118 703 1129 632 q 1094 714 1114 719 q 1073 699 1081 710 q 1060 679 1065 688 l 832 338 l 1133 338 m 1411 1110 q 1358 1056 1411 1100 q 1294 1011 1306 1011 q 1253 1017 1268 1011 q 1236 1043 1239 1024 q 1259 1076 1232 1063 q 1293 1094 1286 1089 l 1364 1157 q 1388 1157 1369 1163 q 1411 1110 1411 1150 z "},"Ë":{"ha":742,"x_min":-8,"x_max":688,"o":"m 686 922 q 683 903 688 915 q 679 892 683 899 l 610 819 l 599 819 q 558 879 585 860 q 417 913 513 913 q 331 903 378 913 q 240 872 283 894 q 154 735 154 828 q 171 696 154 714 q 200 674 179 686 l 404 532 q 439 506 436 508 q 454 464 454 489 q 435 421 454 447 q 353 331 432 417 l 189 147 q 138 72 156 110 q 121 0 121 35 q 168 -86 121 -43 q 313 -137 225 -137 q 387 -126 357 -137 q 453 -82 417 -115 l 476 -60 q 488 -60 485 -60 q 500 -71 500 -61 l 292 -236 l 225 -240 q 65 -186 139 -240 q -8 -72 -8 -132 q 76 78 -8 -12 q 164 169 119 124 l 292 314 q 314 345 306 329 q 322 378 322 361 q 319 397 322 383 q 313 414 317 411 l 85 578 q 53 617 68 589 q 38 674 38 646 q 97 799 38 736 q 240 899 150 854 q 418 953 326 938 q 603 968 510 968 q 654 953 622 968 q 686 922 686 939 m 632 1111 q 625 1086 632 1093 l 557 1022 q 529 1022 550 1015 q 504 1058 504 1031 q 507 1075 504 1069 q 526 1099 510 1082 l 569 1142 q 586 1149 576 1149 q 599 1147 594 1147 q 632 1111 632 1143 m 440 1110 q 433 1085 440 1092 l 365 1021 q 338 1021 358 1014 q 313 1057 313 1029 q 315 1074 313 1068 q 335 1097 318 1081 l 378 1140 q 394 1147 385 1147 q 407 1146 403 1146 q 440 1110 440 1142 z "},"È":{"ha":742,"x_min":-8,"x_max":688,"o":"m 686 922 q 683 903 688 915 q 679 892 683 899 l 610 819 l 599 819 q 558 879 585 860 q 417 913 513 913 q 331 903 378 913 q 240 872 283 894 q 154 735 154 828 q 171 696 154 714 q 200 674 179 686 l 404 532 q 439 506 436 508 q 454 464 454 489 q 435 421 454 447 q 353 331 432 417 l 189 147 q 138 72 156 110 q 121 0 121 35 q 168 -86 121 -43 q 313 -137 225 -137 q 387 -126 357 -137 q 453 -82 417 -115 l 476 -60 q 488 -60 485 -60 q 500 -71 500 -61 l 292 -236 l 225 -240 q 65 -186 139 -240 q -8 -72 -8 -132 q 76 78 -8 -12 q 164 169 119 124 l 292 314 q 314 345 306 329 q 322 378 322 361 q 319 397 322 383 q 313 414 317 411 l 85 578 q 53 617 68 589 q 38 674 38 646 q 97 799 38 736 q 240 899 150 854 q 418 953 326 938 q 603 968 510 968 q 654 953 622 968 q 686 922 686 939 m 519 1058 q 501 1034 517 1042 q 461 1026 485 1026 q 399 1071 451 1026 q 344 1126 346 1115 q 348 1155 342 1142 q 368 1172 354 1168 q 392 1172 386 1178 l 463 1110 q 501 1088 464 1108 q 519 1058 522 1075 z "},"Í":{"ha":918,"x_min":-6,"x_max":957,"o":"m 863 913 l 643 188 l 701 142 l 615 97 l 578 0 q 521 -49 549 -24 q 368 -139 449 -103 q 154 -187 258 -187 q 46 -124 94 -187 q -4 -4 3 -68 q -6 15 -6 1 q 29 144 -6 68 q 64 210 40 169 l 201 251 q 165 181 176 207 q 129 46 129 99 q 158 -78 129 -35 q 283 -133 197 -133 q 428 -77 360 -133 q 525 67 497 -21 l 568 200 q 432 293 476 257 q 296 479 296 401 q 344 599 296 546 q 479 696 385 642 l 863 913 m 729 718 l 574 631 q 449 536 493 585 q 396 413 396 478 q 486 283 396 356 q 578 222 515 260 l 729 718 m 957 1081 q 904 1026 957 1071 q 840 982 851 982 q 799 988 814 982 q 782 1014 785 994 q 805 1047 778 1033 q 839 1065 832 1060 l 910 1128 q 933 1128 915 1133 q 957 1081 957 1121 z "},"Î":{"ha":918,"x_min":-6,"x_max":994,"o":"m 863 913 l 643 188 l 701 142 l 615 97 l 578 0 q 521 -49 549 -24 q 368 -139 449 -103 q 154 -187 258 -187 q 46 -124 94 -187 q -4 -4 3 -68 q -6 15 -6 1 q 29 144 -6 68 q 64 210 40 169 l 201 251 q 165 181 176 207 q 129 46 129 99 q 158 -78 129 -35 q 283 -133 197 -133 q 428 -77 360 -133 q 525 67 497 -21 l 568 200 q 432 293 476 257 q 296 479 296 401 q 344 599 296 546 q 479 696 385 642 l 863 913 m 729 718 l 574 631 q 449 536 493 585 q 396 413 396 478 q 486 283 396 356 q 578 222 515 260 l 729 718 m 994 968 l 914 969 q 889 989 897 983 q 849 1010 860 1010 l 836 1010 q 796 989 818 1010 q 778 968 789 982 l 696 968 l 775 1056 q 803 1065 781 1061 q 846 1069 825 1069 q 915 1056 903 1069 l 994 968 z "},"Ï":{"ha":918,"x_min":-6,"x_max":1018,"o":"m 863 913 l 643 188 l 701 142 l 615 97 l 578 0 q 521 -49 549 -24 q 368 -139 449 -103 q 154 -187 258 -187 q 46 -124 94 -187 q -4 -4 3 -68 q -6 15 -6 1 q 29 144 -6 68 q 64 210 40 169 l 201 251 q 165 181 176 207 q 129 46 129 99 q 158 -78 129 -35 q 283 -133 197 -133 q 428 -77 360 -133 q 525 67 497 -21 l 568 200 q 432 293 476 257 q 296 479 296 401 q 344 599 296 546 q 479 696 385 642 l 863 913 m 729 718 l 574 631 q 449 536 493 585 q 396 413 396 478 q 486 283 396 356 q 578 222 515 260 l 729 718 m 1018 1081 q 1011 1056 1018 1063 l 943 992 q 915 992 936 985 q 890 1028 890 1000 q 893 1044 890 1039 q 913 1068 896 1051 l 956 1111 q 972 1118 963 1118 q 985 1117 981 1117 q 1018 1081 1018 1113 m 826 1079 q 819 1054 826 1061 l 751 990 q 724 990 744 983 q 699 1026 699 999 q 701 1043 699 1038 q 721 1067 704 1050 l 764 1110 q 781 1117 771 1117 q 793 1115 789 1115 q 826 1079 826 1111 z "},"Ì":{"ha":918,"x_min":-6,"x_max":900,"o":"m 863 913 l 643 188 l 701 142 l 615 97 l 578 0 q 521 -49 549 -24 q 368 -139 449 -103 q 154 -187 258 -187 q 46 -124 94 -187 q -4 -4 3 -68 q -6 15 -6 1 q 29 144 -6 68 q 64 210 40 169 l 201 251 q 165 181 176 207 q 129 46 129 99 q 158 -78 129 -35 q 283 -133 197 -133 q 428 -77 360 -133 q 525 67 497 -21 l 568 200 q 432 293 476 257 q 296 479 296 401 q 344 599 296 546 q 479 696 385 642 l 863 913 m 729 718 l 574 631 q 449 536 493 585 q 396 413 396 478 q 486 283 396 356 q 578 222 515 260 l 729 718 m 897 1010 q 878 985 894 993 q 839 978 863 978 q 776 1022 829 978 q 722 1078 724 1067 q 726 1106 719 1093 q 746 1124 732 1119 q 769 1124 764 1129 l 840 1061 q 879 1039 842 1060 q 897 1010 900 1026 z "},"Ó":{"ha":1388,"x_min":13,"x_max":1339,"o":"m 1339 694 q 1211 367 1339 524 q 925 129 1107 238 q 582 -12 769 29 q 283 -43 444 -43 q 93 21 168 -43 q 13 207 13 90 q 110 471 13 336 q 354 709 192 583 q 688 900 517 835 q 1074 971 874 971 q 1265 897 1190 971 q 1339 694 1339 822 m 1207 644 q 1100 833 1207 769 q 885 885 1014 885 q 605 838 728 885 q 350 678 482 790 q 201 489 253 597 q 149 253 149 381 q 257 75 149 139 q 457 24 344 24 q 689 52 576 24 q 879 131 801 81 q 1110 339 1032 232 q 1207 644 1207 474 m 1251 1128 q 1199 1074 1251 1118 q 1135 1029 1146 1029 q 1094 1035 1108 1029 q 1076 1061 1079 1042 q 1099 1094 1072 1081 q 1133 1113 1126 1107 l 1204 1175 q 1228 1175 1210 1181 q 1251 1128 1251 1168 z "},"Ô":{"ha":1388,"x_min":13,"x_max":1339,"o":"m 1339 694 q 1211 367 1339 524 q 925 129 1107 238 q 582 -12 769 29 q 283 -43 444 -43 q 93 21 168 -43 q 13 207 13 90 q 110 471 13 336 q 354 709 192 583 q 688 900 517 835 q 1074 971 874 971 q 1265 897 1190 971 q 1339 694 1339 822 m 1207 644 q 1100 833 1207 769 q 885 885 1014 885 q 605 838 728 885 q 350 678 482 790 q 201 489 253 597 q 149 253 149 381 q 257 75 149 139 q 457 24 344 24 q 689 52 576 24 q 879 131 801 81 q 1110 339 1032 232 q 1207 644 1207 474 m 1169 1043 l 1089 1044 q 1064 1064 1072 1058 q 1024 1085 1035 1085 l 1011 1085 q 971 1064 993 1085 q 953 1043 964 1057 l 871 1043 l 950 1131 q 978 1140 956 1136 q 1021 1144 1000 1144 q 1090 1131 1078 1144 l 1169 1043 z "},"Ò":{"ha":1388,"x_min":13,"x_max":1339,"o":"m 1339 694 q 1211 367 1339 524 q 925 129 1107 238 q 582 -12 769 29 q 283 -43 444 -43 q 93 21 168 -43 q 13 207 13 90 q 110 471 13 336 q 354 709 192 583 q 688 900 517 835 q 1074 971 874 971 q 1265 897 1190 971 q 1339 694 1339 822 m 1207 644 q 1100 833 1207 769 q 885 885 1014 885 q 605 838 728 885 q 350 678 482 790 q 201 489 253 597 q 149 253 149 381 q 257 75 149 139 q 457 24 344 24 q 689 52 576 24 q 879 131 801 81 q 1110 339 1032 232 q 1207 644 1207 474 m 1083 1072 q 1065 1048 1081 1056 q 1025 1040 1049 1040 q 963 1085 1015 1040 q 908 1140 910 1129 q 912 1169 906 1156 q 932 1186 918 1182 q 956 1186 950 1192 l 1026 1124 q 1065 1101 1028 1122 q 1083 1072 1086 1089 z "},"Ú":{"ha":889,"x_min":11,"x_max":835,"o":"m 832 883 l 749 31 l 743 13 l 610 -47 q 643 115 626 -18 q 657 240 649 158 l 397 53 q 308 7 351 19 q 206 -6 265 -6 q 74 43 121 -6 q 26 167 26 92 l 50 789 q 31 836 50 822 q 11 843 25 840 l 118 943 q 147 933 138 938 q 178 894 178 918 q 172 836 178 881 q 167 760 167 792 l 149 258 q 185 128 149 178 q 306 69 226 69 q 378 78 350 69 q 443 113 407 86 l 657 269 l 697 839 l 678 869 l 800 925 q 824 924 813 928 q 832 883 835 921 m 636 1111 q 583 1057 636 1101 q 519 1013 531 1013 q 478 1019 493 1013 q 461 1044 464 1025 q 484 1077 457 1064 q 518 1096 511 1090 l 589 1158 q 613 1158 594 1164 q 636 1111 636 1151 z "},"Û":{"ha":889,"x_min":11,"x_max":835,"o":"m 832 883 l 749 31 l 743 13 l 610 -47 q 643 115 626 -18 q 657 240 649 158 l 397 53 q 308 7 351 19 q 206 -6 265 -6 q 74 43 121 -6 q 26 167 26 92 l 50 789 q 31 836 50 822 q 11 843 25 840 l 118 943 q 147 933 138 938 q 178 894 178 918 q 172 836 178 881 q 167 760 167 792 l 149 258 q 185 128 149 178 q 306 69 226 69 q 378 78 350 69 q 443 113 407 86 l 657 269 l 697 839 l 678 869 l 800 925 q 824 924 813 928 q 832 883 835 921 m 628 1010 l 547 1011 q 522 1031 531 1025 q 482 1051 493 1051 l 469 1051 q 429 1031 451 1051 q 411 1010 422 1024 l 329 1010 l 408 1097 q 436 1107 414 1103 q 479 1111 458 1111 q 549 1097 536 1111 l 628 1010 z "},"Ù":{"ha":889,"x_min":11,"x_max":835,"o":"m 832 883 l 749 31 l 743 13 l 610 -47 q 643 115 626 -18 q 657 240 649 158 l 397 53 q 308 7 351 19 q 206 -6 265 -6 q 74 43 121 -6 q 26 167 26 92 l 50 789 q 31 836 50 822 q 11 843 25 840 l 118 943 q 147 933 138 938 q 178 894 178 918 q 172 836 178 881 q 167 760 167 792 l 149 258 q 185 128 149 178 q 306 69 226 69 q 378 78 350 69 q 443 113 407 86 l 657 269 l 697 839 l 678 869 l 800 925 q 824 924 813 928 q 832 883 835 921 m 465 1040 q 447 1016 463 1024 q 407 1008 431 1008 q 344 1053 397 1008 q 290 1108 292 1097 q 294 1137 288 1124 q 314 1154 300 1150 q 338 1154 332 1160 l 408 1092 q 447 1069 410 1090 q 465 1040 468 1057 z "},"ı":{"ha":272,"x_min":7,"x_max":210,"o":"m 210 78 q 200 63 210 69 l 131 8 q 122 1 126 4 q 104 0 118 0 q 22 90 46 0 q 7 235 7 149 q 7 256 7 244 q 8 264 7 258 l 122 308 l 122 264 q 149 144 122 192 q 210 78 179 111 z "},"ˆ":{"ha":322,"x_min":25,"x_max":324,"o":"m 324 910 l 243 911 q 218 931 226 925 q 178 951 189 951 l 165 951 q 125 931 147 951 q 107 910 118 924 l 25 910 l 104 997 q 132 1007 110 1003 q 175 1011 154 1011 q 244 997 232 1011 l 324 910 z "},"˜":{"ha":507,"x_min":13,"x_max":447,"o":"m 447 711 q 425 639 438 663 q 313 565 388 565 q 204 604 282 565 q 136 622 168 622 q 54 594 96 622 q 21 565 40 586 l 13 575 q 32 643 21 621 q 153 711 69 711 q 247 688 206 711 q 325 664 289 664 q 407 690 368 664 q 438 717 419 699 l 447 711 z "},"¯":{"ha":789,"x_min":24,"x_max":750,"o":"m 750 906 l 24 906 l 24 978 l 750 978 l 750 906 z "},"˚":{"ha":404,"x_min":96,"x_max":321,"o":"m 321 901 q 288 797 321 843 q 203 751 254 751 q 126 781 157 751 q 96 856 96 810 q 135 947 96 899 q 219 996 175 996 q 288 967 254 996 q 321 901 321 938 m 267 853 q 250 884 267 863 q 226 922 233 906 q 176 894 190 913 q 161 850 161 875 q 165 827 161 839 q 172 801 168 815 q 246 830 225 818 q 267 853 267 842 z "},"¸":{"ha":478,"x_min":67,"x_max":322,"o":"m 322 -165 q 267 -264 322 -232 q 144 -292 219 -292 q 96 -277 121 -292 q 71 -242 71 -262 q 121 -181 67 -212 l 135 -176 q 97 -226 97 -212 q 112 -237 99 -236 q 139 -237 125 -237 q 208 -189 208 -237 q 184 -149 208 -167 q 118 -131 160 -131 q 83 -133 96 -131 l 144 0 l 207 0 l 156 -93 q 185 -84 171 -86 q 208 -82 199 -82 q 288 -106 254 -82 q 322 -165 322 -129 z "},"ˇ":{"ha":322,"x_min":40,"x_max":307,"o":"m 307 975 l 239 899 q 205 888 232 890 q 168 885 178 885 q 110 899 124 885 l 40 975 l 103 975 q 121 954 114 961 q 171 933 144 933 q 219 954 189 933 q 246 975 229 961 l 307 975 z "},"Ł":{"ha":1314,"x_min":-200,"x_max":1264,"o":"m 1264 740 q 1089 421 1264 568 q 729 224 951 306 q 442 156 544 156 l 394 71 l 754 38 q 932 28 856 28 q 1094 47 1046 28 q 1122 68 1111 53 q 1110 -19 1119 10 q 990 -108 1079 -108 q 963 -107 972 -108 l 342 -26 q 226 -192 257 -154 q 97 -306 165 -268 q -86 -349 19 -349 q -176 -327 -153 -349 q -200 -265 -200 -306 q -179 -187 -200 -231 q -122 -107 -158 -143 l 8 26 q 79 69 32 51 q 183 86 126 86 l 361 75 l 401 151 l 307 146 l 307 171 l 414 181 q 489 349 457 272 q 435 335 456 339 q 314 319 365 319 q 241 328 275 319 q 172 389 207 338 q 144 439 161 406 l 161 456 q 174 425 168 435 q 217 385 190 393 q 286 376 243 376 q 450 408 357 376 q 529 440 481 418 q 668 726 618 640 q 824 911 742 853 q 1042 976 915 976 q 1214 901 1156 976 q 1264 740 1264 838 m 1133 663 q 1086 817 1133 767 q 958 868 1039 868 q 810 806 883 868 q 681 650 744 751 q 576 457 633 576 l 832 550 l 857 482 l 533 365 q 488 261 503 297 q 453 186 461 203 q 664 226 513 181 q 975 378 857 286 q 1133 663 1133 501 m 308 -22 q 231 -20 269 -21 q 131 -12 193 -19 q 100 -11 121 -11 q -60 -75 6 -11 q -117 -193 -117 -131 q -76 -262 -117 -236 q -6 -285 -42 -285 q 158 -217 76 -285 q 268 -90 215 -169 q 308 -22 288 -56 z "},"ł":{"ha":550,"x_min":13,"x_max":496,"o":"m 496 546 l 321 482 l 275 60 q 243 29 254 39 q 200 0 210 -1 l 186 0 q 179 21 181 4 q 178 58 178 38 q 178 79 178 75 q 178 82 178 81 l 221 446 q 194 424 206 431 q 121 401 160 401 q 78 408 97 401 q 21 496 38 421 q 13 569 17 521 l 33 582 q 39 540 35 554 q 82 488 51 496 q 103 483 92 485 q 125 482 115 482 q 200 501 164 482 q 229 521 211 507 l 250 697 q 253 730 253 714 q 253 754 253 746 q 235 842 253 815 q 225 851 232 846 l 350 910 l 368 910 l 329 557 l 472 610 l 496 546 z "},"Š":{"ha":1400,"x_min":-118,"x_max":1344,"o":"m 1344 411 q 1299 236 1344 321 q 1240 142 1289 219 q 1172 52 1204 85 q 1079 -18 1139 19 q 961 -78 1006 -62 q 818 -99 901 -99 q 616 -64 733 -99 q 383 6 499 -29 q 192 40 268 40 q 7 -22 74 40 q -65 -129 -40 -65 q -89 -258 -89 -193 l -93 -414 l -99 -421 l -111 -421 l -118 -414 l -111 -261 q -71 -87 -111 -156 q 32 21 -42 -37 q 172 115 115 88 q 338 151 247 151 q 506 110 399 151 q 725 28 613 69 q 915 -14 838 -14 q 1005 -8 961 -14 q 1078 13 1049 -3 q 1221 147 1163 60 q 1266 231 1251 192 q 1281 317 1281 269 q 1279 342 1281 333 q 1246 428 1274 394 q 1169 461 1218 461 q 1149 463 1154 463 q 1122 459 1135 463 q 1099 453 1110 456 l 735 303 q 634 272 678 279 q 529 264 590 264 q 422 314 463 264 q 382 433 382 364 q 422 585 382 501 q 531 736 461 668 q 667 844 606 810 q 921 910 781 910 q 1024 901 976 910 q 1108 874 1072 893 q 1119 868 1117 871 q 1125 846 1131 860 l 1074 714 l 1056 729 q 996 774 1021 760 q 843 819 919 819 q 703 808 750 819 q 546 718 614 788 q 472 626 492 663 q 443 492 443 572 q 478 423 443 456 q 549 390 514 390 q 629 398 592 390 q 703 421 667 406 l 1078 578 q 1140 597 1108 592 q 1210 603 1172 603 q 1313 544 1281 596 q 1344 411 1344 493 m 1044 1085 l 976 1008 q 942 997 969 1000 q 906 994 915 994 q 847 1008 861 994 l 778 1085 l 840 1085 q 858 1064 851 1071 q 908 1043 882 1043 q 957 1064 926 1043 q 983 1085 967 1071 l 1044 1085 z "},"š":{"ha":360,"x_min":6,"x_max":340,"o":"m 311 135 q 261 38 311 75 q 47 -12 193 -12 q 14 -3 22 -12 q 6 24 6 7 q 24 51 6 39 q 50 60 42 64 l 131 18 q 169 13 142 13 q 201 29 189 13 q 214 65 214 46 q 167 113 208 113 l 67 113 q 40 133 46 113 q 33 168 33 153 q 125 285 33 231 q 222 326 196 326 l 267 326 l 272 314 l 260 253 l 249 251 l 188 279 l 169 285 q 144 269 154 285 q 135 232 135 254 q 149 194 135 204 q 188 183 163 183 l 267 183 q 299 169 286 183 q 311 135 311 156 m 340 463 l 272 386 q 238 375 265 378 q 201 372 211 372 q 143 386 157 372 l 74 463 l 136 463 q 154 442 147 449 q 204 421 178 421 q 253 442 222 421 q 279 463 263 449 l 340 463 z "},"Ž":{"ha":1017,"x_min":-147,"x_max":968,"o":"m 968 64 l 874 -60 q 726 -40 782 -46 q 450 -19 550 -19 q 176 -81 328 -19 q -42 -194 71 -124 q -131 -256 -86 -225 l -147 -247 l -76 -149 l 251 303 l 7 297 l 47 389 l 307 394 l 597 768 q 604 782 604 778 q 583 794 604 794 l 308 789 l 233 761 l 233 779 l 292 899 l 313 910 l 765 910 l 765 899 l 372 397 l 660 394 q 700 401 676 394 q 721 408 707 403 q 682 364 700 378 q 542 318 625 318 l 303 303 l -54 -158 q 57 -96 1 -126 q 297 22 196 -21 q 528 86 450 86 q 875 72 674 86 q 968 64 911 71 m 669 1071 l 601 994 q 567 983 594 986 q 531 981 540 981 q 472 994 486 981 l 403 1071 l 465 1071 q 483 1050 476 1057 q 533 1029 507 1029 q 582 1050 551 1029 q 608 1071 592 1057 l 669 1071 z "},"ž":{"ha":500,"x_min":1,"x_max":453,"o":"m 453 76 l 401 0 l 72 0 q 21 19 46 0 q 1 40 13 25 l 267 229 q 246 228 265 228 q 142 234 203 228 q 72 247 81 240 l 76 258 l 129 338 l 408 308 l 219 167 q 194 146 200 151 q 175 103 175 125 q 204 89 175 89 q 225 89 219 89 l 453 89 l 453 76 m 399 479 l 331 403 q 297 392 324 394 q 260 389 269 389 q 201 403 215 389 l 132 479 l 194 479 q 213 458 206 465 q 263 438 236 438 q 311 458 281 438 q 338 479 321 465 l 399 479 z "},"¦":{"ha":258,"x_min":78,"x_max":165,"o":"m 165 547 l 78 547 l 78 994 l 165 994 l 165 547 m 165 -50 l 78 -50 l 78 383 l 165 383 l 165 -50 z "},"Ð":{"ha":1639,"x_min":15,"x_max":1599,"o":"m 1599 449 q 1446 136 1599 290 q 1192 -8 1303 -8 q 1030 2 1089 -8 q 872 47 971 13 l 633 129 q 444 -89 539 19 q 201 -178 332 -178 q 63 -135 111 -178 q 15 -7 15 -93 q 78 139 15 56 q 197 247 142 222 l 246 264 q 310 317 260 271 q 357 361 325 332 l 671 249 l 878 547 l 518 547 l 518 619 l 928 619 l 1058 808 q 917 854 1038 825 q 701 888 781 888 q 518 849 608 888 q 392 697 392 794 q 458 542 392 607 q 546 490 514 486 l 561 472 l 468 408 l 453 408 q 384 503 414 425 q 354 653 354 581 q 486 886 354 796 q 767 968 606 968 q 808 968 792 968 q 835 968 825 968 q 961 957 911 968 q 1118 896 1011 946 l 1165 957 l 1183 957 l 1288 838 q 1504 671 1418 768 q 1599 449 1599 565 m 1511 349 q 1406 606 1511 490 q 1210 747 1331 686 q 1103 792 1121 792 l 981 619 l 1229 618 l 1229 549 l 929 547 l 708 233 l 1008 129 q 1124 92 1094 100 q 1229 76 1181 76 q 1431 153 1351 76 q 1511 349 1511 231 m 599 142 l 357 225 q 334 230 346 229 q 315 232 322 231 q 293 231 310 232 q 265 229 276 229 q 142 182 193 229 q 78 7 78 122 q 126 -86 78 -46 q 221 -122 171 -122 q 421 -60 339 -122 q 599 142 486 -11 z "},"ð":{"ha":594,"x_min":69,"x_max":608,"o":"m 608 801 l 418 713 q 522 461 483 597 q 561 231 561 325 q 496 44 561 99 q 319 -3 439 -3 q 154 85 239 -3 q 69 272 69 174 q 115 378 69 344 q 217 406 153 406 q 336 382 264 406 q 399 358 360 375 q 376 524 390 449 q 329 671 361 600 l 133 581 l 103 647 l 293 735 q 207 831 257 790 q 79 900 153 875 l 121 967 q 263 906 194 957 q 379 776 322 860 l 576 868 l 608 801 m 486 133 q 427 297 486 224 q 294 369 368 369 q 228 338 257 369 q 200 261 200 307 q 251 132 200 208 q 383 42 313 42 q 457 60 433 42 q 486 133 486 82 z "},"Ý":{"ha":900,"x_min":-279,"x_max":840,"o":"m 840 763 q 818 699 840 731 q 789 663 813 692 l -142 -476 q -161 -521 -161 -501 q -146 -545 -161 -537 q -107 -553 -131 -553 q -58 -537 -86 -553 l 443 -285 q 561 -204 517 -247 q 625 -74 625 -143 q 608 -17 625 -39 q 572 4 592 4 q 499 -14 535 4 q 469 -33 488 -19 l 453 -32 l 454 -19 l 678 129 l 690 122 l 761 0 q 779 -68 779 -31 q 700 -207 779 -139 q 574 -285 649 -250 l -142 -612 q -206 -632 -156 -618 q -253 -654 -242 -642 l -279 -660 l -279 -558 q -196 -501 -221 -529 q -158 -449 -175 -468 l 182 -32 q 190 3 190 -22 q 188 33 190 22 q 183 50 186 44 l 72 735 q 36 811 63 793 q 13 825 24 818 l 113 957 q 127 958 117 957 q 143 960 138 960 q 178 940 167 957 q 189 903 185 929 l 292 97 l 615 519 q 668 620 647 561 q 689 732 689 679 q 660 794 689 771 q 599 818 631 818 l 560 818 l 671 957 l 697 961 l 831 819 q 839 798 838 813 q 840 763 840 783 m 586 1117 q 533 1063 586 1107 q 469 1018 481 1018 q 428 1024 443 1018 q 411 1050 414 1031 q 434 1083 407 1069 q 468 1101 461 1096 l 539 1164 q 563 1164 544 1169 q 586 1117 586 1157 z "},"ý":{"ha":533,"x_min":-104,"x_max":481,"o":"m 481 210 q 474 168 481 189 q 443 108 468 147 l -64 -674 l -90 -714 l -104 -718 q -103 -674 -104 -697 q -93 -637 -103 -650 l 357 33 q 372 86 372 57 q 351 160 372 125 q 299 194 329 194 q 274 188 283 194 q 251 167 264 182 l 118 0 l 104 0 q 96 88 99 50 q 1 251 82 221 l 90 303 l 126 307 q 194 225 172 307 q 207 142 201 199 l 319 300 q 335 303 329 303 q 364 307 358 307 q 440 288 410 307 q 481 210 481 263 m 442 518 q 389 464 442 508 q 325 419 336 419 q 284 426 299 419 q 267 451 269 432 q 290 484 263 471 q 324 503 317 497 l 394 565 q 418 565 400 571 q 442 518 442 558 z "},"Þ":{"ha":418,"x_min":-92,"x_max":419,"o":"m 403 194 q 328 107 357 136 q 172 19 239 19 q 142 33 156 19 q 119 56 128 47 l 58 -119 q 56 -136 56 -131 q 63 -165 56 -150 q 69 -178 64 -169 l -92 -131 q -60 -115 -79 -128 q -36 -83 -42 -103 q 42 89 -7 -58 q 118 351 76 194 q 153 488 135 419 q 156 503 156 499 q 151 517 156 513 q 147 519 149 518 q 213 536 190 531 q 297 565 282 556 q 290 553 293 557 q 275 519 281 536 l 188 282 l 303 342 q 328 344 319 344 q 394 325 368 344 q 419 263 419 306 q 403 194 419 235 m 311 157 q 314 178 314 171 q 299 225 314 204 q 266 249 283 246 q 222 251 249 251 q 176 251 192 251 l 165 219 q 154 194 160 207 q 153 178 153 189 q 171 123 153 149 q 221 97 189 97 q 281 115 257 97 q 311 157 306 132 z "},"þ":{"ha":418,"x_min":-147,"x_max":419,"o":"m 408 913 q 401 900 404 904 q 386 867 392 883 l 188 282 l 303 342 q 328 344 319 344 q 394 325 368 344 q 419 263 419 306 q 403 194 419 235 q 328 107 357 136 q 172 19 239 19 q 142 33 156 19 q 119 56 128 47 l 3 -258 q 0 -275 0 -269 q 7 -304 0 -289 q 14 -317 8 -308 l -147 -269 q -116 -254 -135 -267 q -92 -222 -97 -242 q 29 76 -62 -197 q 186 572 103 293 q 264 835 225 703 q 267 850 267 846 q 263 864 267 860 q 258 867 260 865 q 324 883 301 878 q 408 913 393 903 m 311 157 q 314 178 314 171 q 299 225 314 204 q 266 249 283 246 q 222 251 249 251 q 176 251 192 251 l 165 219 q 154 194 160 207 q 153 178 153 189 q 171 123 153 149 q 221 97 189 97 q 281 115 257 97 q 311 157 306 132 z "},"­":{"ha":382,"x_min":29,"x_max":360,"o":"m 360 256 l 29 256 l 29 328 l 360 328 l 360 256 z "},"×":{"ha":444,"x_min":42,"x_max":369,"o":"m 369 176 l 318 125 l 207 236 l 100 129 l 44 183 l 151 290 l 42 401 l 93 451 l 203 342 l 299 438 l 354 383 l 258 288 l 369 176 z "},"¹":{"ha":267,"x_min":14,"x_max":254,"o":"m 253 1001 l 210 628 l 140 600 l 133 600 l 164 886 q 154 899 167 899 q 144 893 149 899 l 36 786 q 24 781 31 781 q 18 782 19 781 q 21 793 14 786 l 242 1008 q 250 1010 244 1011 q 253 1001 254 1008 z "},"²":{"ha":385,"x_min":14,"x_max":361,"o":"m 361 682 q 338 642 350 654 q 214 601 297 601 q 120 609 171 601 q 14 626 69 617 l 24 639 l 110 711 q 176 784 150 746 q 203 854 203 822 q 185 903 203 882 q 140 924 168 924 q 67 876 104 924 q 56 872 61 874 q 93 926 56 899 q 196 997 144 961 l 204 997 q 262 941 239 968 q 285 885 285 914 q 215 783 285 846 q 113 694 164 739 l 118 683 q 158 672 143 675 q 236 660 210 660 q 318 666 278 660 q 361 682 358 672 z "},"³":{"ha":388,"x_min":11,"x_max":372,"o":"m 372 999 q 293 933 360 992 q 229 878 272 915 l 289 876 q 347 851 329 876 q 361 804 361 832 q 263 644 361 719 q 67 568 165 568 q 17 596 29 568 q 11 625 13 604 q 56 607 31 617 q 115 597 81 597 q 235 642 181 597 q 289 736 289 686 q 217 822 289 822 q 106 769 169 822 q 85 765 94 767 q 100 788 85 772 q 118 803 108 796 l 207 871 q 241 906 226 886 q 256 939 256 925 q 240 961 254 954 q 208 968 226 968 q 189 963 200 968 q 167 946 178 958 l 160 953 l 229 1039 q 313 1008 249 1015 q 372 1006 333 1007 l 372 999 z "},"½":{"ha":892,"x_min":14,"x_max":894,"o":"m 894 1024 l 94 -53 l 14 -53 l 821 1024 l 894 1024 m 840 78 q 817 38 829 50 q 693 -3 776 -3 q 599 5 650 -3 q 493 22 549 13 l 503 35 l 589 107 q 656 180 629 142 q 682 250 682 218 q 665 299 682 278 q 619 319 647 319 q 546 272 583 319 q 535 268 540 269 q 572 322 535 294 q 675 393 624 357 l 683 393 q 741 337 718 364 q 764 281 764 310 q 694 179 764 242 q 592 90 643 135 l 597 79 q 638 68 622 71 q 715 56 689 56 q 797 62 757 56 q 840 78 838 68 m 361 1001 l 318 628 l 249 600 l 242 600 l 272 886 q 263 899 275 899 q 253 893 257 899 l 144 786 q 132 781 139 781 q 126 782 128 781 q 129 793 122 786 l 350 1008 q 358 1010 353 1011 q 361 1001 363 1008 z "},"¼":{"ha":892,"x_min":-14,"x_max":867,"o":"m 867 1024 l 67 -53 l -14 -53 l 793 1024 l 867 1024 m 821 178 l 799 128 l 707 128 l 701 35 l 625 4 l 635 128 l 447 128 l 444 140 l 719 425 l 731 418 l 711 169 l 788 169 q 813 174 801 169 q 821 178 815 175 m 649 331 l 489 169 l 636 169 l 649 331 m 344 1001 l 301 628 l 232 600 l 225 600 l 256 886 q 246 899 258 899 q 236 893 240 899 l 128 786 q 115 781 122 781 q 110 782 111 781 q 113 793 106 786 l 333 1008 q 342 1010 336 1011 q 344 1001 346 1008 z "},"¾":{"ha":996,"x_min":44,"x_max":925,"o":"m 925 1024 l 125 -53 l 44 -53 l 851 1024 l 925 1024 m 888 174 l 865 124 l 774 124 l 768 31 l 692 0 l 701 124 l 514 124 l 511 136 l 786 421 l 797 414 l 778 165 l 854 165 q 879 169 868 165 q 888 174 882 171 m 715 326 l 556 165 l 703 165 l 715 326 m 443 1007 q 364 942 431 1000 q 300 886 343 924 l 360 885 q 418 860 400 885 q 432 813 432 840 q 334 652 432 728 q 138 576 236 576 q 88 604 100 576 q 82 633 83 613 q 126 615 101 625 q 186 606 151 606 q 306 650 251 606 q 360 744 360 694 q 288 831 360 831 q 176 778 240 831 q 156 774 165 775 q 171 796 156 781 q 189 811 179 804 l 278 879 q 312 914 297 894 q 326 947 326 933 q 311 969 325 963 q 279 976 297 976 q 260 972 271 976 q 238 954 249 967 l 231 961 l 300 1047 q 383 1017 319 1024 q 443 1014 404 1015 l 443 1007 z "}}}
